<svg xmlns="http://www.w3.org/2000/svg" xmlns:xlink="http://www.w3.org/1999/xlink" width="1240" height="711.3"><rect width="1240" height="711.3" rx="5" ry="5" class="a"/><svg y="0%" x="0%"><circle cx="20" cy="20" r="6" fill="#ff5f58"/><circle cx="40" cy="20" r="6" fill="#ffbd2e"/><circle cx="60" cy="20" r="6" fill="#18c132"/></svg><svg height="651.3" viewBox="0 0 120 65.13" width="1200" x="15" xmlns="http://www.w3.org/2000/svg" xmlns:xlink="http://www.w3.org/1999/xlink" y="50"><style>@keyframes i{0%{transform:translateX(0)}.35%{transform:translateX(-120px)}1.83%{transform:translateX(-240px)}2.85%{transform:translateX(-360px)}3.24%{transform:translateX(-480px)}4.16%{transform:translateX(-600px)}4.96%{transform:translateX(-720px)}8.15%{transform:translateX(-840px)}10.18%{transform:translateX(-960px)}11.38%{transform:translateX(-1080px)}11.86%{transform:translateX(-1200px)}13%{transform:translateX(-1320px)}13.9%{transform:translateX(-1440px)}14.25%{transform:translateX(-1560px)}15.65%{transform:translateX(-1680px)}16.19%{transform:translateX(-1800px)}17.23%{transform:translateX(-1920px)}18.17%{transform:translateX(-2040px)}19%{transform:translateX(-2160px)}20.91%{transform:translateX(-2280px)}21.23%{transform:translateX(-2400px)}21.38%{transform:translateX(-2520px)}21.4%{transform:translateX(-2640px)}26.48%{transform:translateX(-2760px)}27.96%{transform:translateX(-2880px)}28.66%{transform:translateX(-3000px)}29.15%{transform:translateX(-3120px)}29.87%{transform:translateX(-3240px)}31.41%{transform:translateX(-3480px)}31.42%{transform:translateX(-3600px)}45.52%{transform:translateX(-3720px)}47.23%{transform:translateX(-4080px)}47.24%{transform:translateX(-4200px)}57.23%{transform:translateX(-4320px)}57.75%{transform:translateX(-4440px)}59.66%{transform:translateX(-4680px)}59.67%{transform:translateX(-4800px)}75.31%{transform:translateX(-4920px)}75.78%{transform:translateX(-5040px)}77.74%{transform:translateX(-5160px)}77.75%{transform:translateX(-5400px)}93.48%{transform:translateX(-5520px)}93.97%{transform:translateX(-5640px)}95.03%{transform:translateX(-5880px)}95.08%{transform:translateX(-6000px)}to{transform:translateX(-6120px)}}.a{fill:#282d35}.f{fill:#b9c0cb;white-space:pre}</style><g font-family="Monaco,Consolas,Menlo,'Bitstream Vera Sans Mono','Powerline Symbols',monospace" font-size="1.67"><defs><symbol id="1"><text y="1.67" class="f">root@Artem:~#</text></symbol><symbol id="2"><text y="1.67" class="f">root@Artem:~#</text><text x="14.028" y="1.67" class="f">brain-progression</text></symbol><symbol id="3"><text y="1.67" class="f">(node:325)</text><text x="11.022" y="1.67" class="f">ExperimentalWarning:</text><text x="32.064" y="1.67" class="f">The</text><text x="36.072" y="1.67" class="f">ESM</text><text x="40.08" y="1.67" class="f">module</text><text x="47.094" y="1.67" class="f">loader</text><text x="54.108" y="1.67" class="f">is</text><text x="57.114" y="1.67" class="f">experimental.</text></symbol><symbol id="4"><text y="1.67" class="f">Welcome</text><text x="8.016" y="1.67" class="f">to</text><text x="11.022" y="1.67" class="f">the</text><text x="15.03" y="1.67" class="f">Brain</text><text x="21.042" y="1.67" class="f">Games!</text></symbol><symbol id="5"><text y="1.67" class="f">May</text><text x="4.008" y="1.67" class="f">I</text><text x="6.012" y="1.67" class="f">have</text><text x="11.022" y="1.67" class="f">your</text><text x="16.032" y="1.67" class="f">name?</text><text x="22.044" y="1.67" class="f">Artem</text></symbol><symbol id="6"><text y="1.67" class="f">Hello,</text><text x="7.014" y="1.67" class="f">Artem!</text></symbol><symbol id="7"><text y="1.67" class="f">What</text><text x="5.01" y="1.67" class="f">number</text><text x="12.024" y="1.67" class="f">is</text><text x="15.03" y="1.67" class="f">missing</text><text x="23.046" y="1.67" class="f">in</text><text x="26.052" y="1.67" class="f">the</text><text x="30.06" y="1.67" class="f">progression?</text></symbol><symbol id="8"><text y="1.67" class="f">Question:</text><text x="10.02" y="1.67" class="f">4</text><text x="12.024" y="1.67" class="f">11</text><text x="15.03" y="1.67" class="f">18</text><text x="18.036" y="1.67" class="f">25</text><text x="21.042" y="1.67" class="f">32</text><text x="24.048" y="1.67" class="f">..</text><text x="27.054" y="1.67" class="f">46</text><text x="30.06" y="1.67" class="f">53</text><text x="33.066" y="1.67" class="f">60</text><text x="36.072" y="1.67" class="f">67</text></symbol><symbol id="9"><text y="1.67" class="f">Your</text><text x="5.01" y="1.67" class="f">answer:</text></symbol><symbol id="10"><text y="1.67" class="f">Your</text><text x="5.01" y="1.67" class="f">answer:</text><text x="13.026" y="1.67" class="f">4</text></symbol><symbol id="11"><text y="1.67" class="f">&quot;4&quot;</text><text x="4.008" y="1.67" class="f">is</text><text x="7.014" y="1.67" class="f">wrong</text><text x="13.026" y="1.67" class="f">answer</text><text x="20.04" y="1.67" class="f">;(.</text><text x="24.048" y="1.67" class="f">Correct</text><text x="32.064" y="1.67" class="f">answer</text><text x="39.078" y="1.67" class="f">was</text><text x="43.086" y="1.67" class="f">&quot;39&quot;.</text></symbol><symbol id="12"><text y="1.67" class="f">Let&apos;s</text><text x="6.012" y="1.67" class="f">try</text><text x="10.02" y="1.67" class="f">again,</text><text x="17.034" y="1.67" class="f">Artem</text></symbol><symbol id="13"><text y="1.67" class="f">Question:</text><text x="10.02" y="1.67" class="f">96</text><text x="13.026" y="1.67" class="f">90</text><text x="16.032" y="1.67" class="f">84</text><text x="19.038" y="1.67" class="f">78</text><text x="22.044" y="1.67" class="f">72</text><text x="25.05" y="1.67" class="f">..</text><text x="28.056" y="1.67" class="f">60</text><text x="31.062" y="1.67" class="f">54</text><text x="34.068" y="1.67" class="f">48</text><text x="37.074" y="1.67" class="f">42</text></symbol><symbol id="14"><text y="1.67" class="f">Your</text><text x="5.01" y="1.67" class="f">answer:</text><text x="13.026" y="1.67" class="f">6</text></symbol><symbol id="15"><text y="1.67" class="f">Your</text><text x="5.01" y="1.67" class="f">answer:</text><text x="13.026" y="1.67" class="f">66</text></symbol><symbol id="16"><text y="1.67" class="f">Correct!</text></symbol><symbol id="17"><text y="1.67" class="f">Question:</text><text x="10.02" y="1.67" class="f">98</text><text x="13.026" y="1.67" class="f">91</text><text x="16.032" y="1.67" class="f">84</text><text x="19.038" y="1.67" class="f">..</text><text x="22.044" y="1.67" class="f">70</text><text x="25.05" y="1.67" class="f">63</text><text x="28.056" y="1.67" class="f">56</text><text x="31.062" y="1.67" class="f">49</text><text x="34.068" y="1.67" class="f">42</text><text x="37.074" y="1.67" class="f">35</text></symbol><symbol id="18"><text y="1.67" class="f">Your</text><text x="5.01" y="1.67" class="f">answer:</text><text x="13.026" y="1.67" class="f">77</text></symbol><symbol id="19"><text y="1.67" class="f">Question:</text><text x="10.02" y="1.67" class="f">46</text><text x="13.026" y="1.67" class="f">49</text><text x="16.032" y="1.67" class="f">52</text><text x="19.038" y="1.67" class="f">55</text><text x="22.044" y="1.67" class="f">58</text><text x="25.05" y="1.67" class="f">61</text><text x="28.056" y="1.67" class="f">64</text><text x="31.062" y="1.67" class="f">..</text><text x="34.068" y="1.67" class="f">70</text><text x="37.074" y="1.67" class="f">73</text></symbol><symbol id="20"><text y="1.67" class="f">Your</text><text x="5.01" y="1.67" class="f">answer:</text><text x="13.026" y="1.67" class="f">67</text></symbol><symbol id="21"><text y="1.67" class="f">Congratulations,</text><text x="17.034" y="1.67" class="f">Artem!</text></symbol><symbol id="a"><path fill="transparent" d="M0 0h120v30H0z"/></symbol><symbol id="b"><path fill="#6f7683" d="M0 0h1.102v2.171H0z"/></symbol></defs><path class="a" d="M0 0h120v65.13H0z"/><g style="animation-duration:26.882388s;animation-iteration-count:infinite;animation-name:i;animation-timing-function:steps(1,end)"><svg width="6240"><svg><use xlink:href="#a"/><use xlink:href="#b" x="-.004"/></svg><svg x="120"><use xlink:href="#a"/><use xlink:href="#b" x="13.996"/><use xlink:href="#1"/></svg><svg x="240"><use xlink:href="#a"/><use xlink:href="#b" x="14.996"/><text y="1.67" class="f">root@Artem:~#</text><text x="14.028" y="1.67" class="f">b</text></svg><svg x="360"><use xlink:href="#a"/><use xlink:href="#b" x="15.996"/><text y="1.67" class="f">root@Artem:~#</text><text x="14.028" y="1.67" class="f">br</text></svg><svg x="480"><use xlink:href="#a"/><use xlink:href="#b" x="16.996"/><text y="1.67" class="f">root@Artem:~#</text><text x="14.028" y="1.67" class="f">bra</text></svg><svg x="600"><use xlink:href="#a"/><use xlink:href="#b" x="17.996"/><text y="1.67" class="f">root@Artem:~#</text><text x="14.028" y="1.67" class="f">brai</text></svg><svg x="720"><use xlink:href="#a"/><use xlink:href="#b" x="18.996"/><text y="1.67" class="f">root@Artem:~#</text><text x="14.028" y="1.67" class="f">brain</text></svg><svg x="840"><use xlink:href="#a"/><use xlink:href="#b" x="19.996"/><text y="1.67" class="f">root@Artem:~#</text><text x="14.028" y="1.67" class="f">brain-</text></svg><svg x="960"><use xlink:href="#a"/><use xlink:href="#b" x="20.996"/><text y="1.67" class="f">root@Artem:~#</text><text x="14.028" y="1.67" class="f">brain-p</text></svg><svg x="1080"><use xlink:href="#a"/><use xlink:href="#b" x="21.996"/><text y="1.67" class="f">root@Artem:~#</text><text x="14.028" y="1.67" class="f">brain-pr</text></svg><svg x="1200"><use xlink:href="#a"/><use xlink:href="#b" x="22.996"/><text y="1.67" class="f">root@Artem:~#</text><text x="14.028" y="1.67" class="f">brain-pro</text></svg><svg x="1320"><use xlink:href="#a"/><use xlink:href="#b" x="23.996"/><text y="1.67" class="f">root@Artem:~#</text><text x="14.028" y="1.67" class="f">brain-prog</text></svg><svg x="1440"><use xlink:href="#a"/><use xlink:href="#b" x="24.996"/><text y="1.67" class="f">root@Artem:~#</text><text x="14.028" y="1.67" class="f">brain-progr</text></svg><svg x="1560"><use xlink:href="#a"/><use xlink:href="#b" x="25.996"/><text y="1.67" class="f">root@Artem:~#</text><text x="14.028" y="1.67" class="f">brain-progre</text></svg><svg x="1680"><use xlink:href="#a"/><use xlink:href="#b" x="26.996"/><text y="1.67" class="f">root@Artem:~#</text><text x="14.028" y="1.67" class="f">brain-progres</text></svg><svg x="1800"><use xlink:href="#a"/><use xlink:href="#b" x="27.996"/><text y="1.67" class="f">root@Artem:~#</text><text x="14.028" y="1.67" class="f">brain-progress</text></svg><svg x="1920"><use xlink:href="#a"/><use xlink:href="#b" x="28.996"/><text y="1.67" class="f">root@Artem:~#</text><text x="14.028" y="1.67" class="f">brain-progressi</text></svg><svg x="2040"><use xlink:href="#a"/><use xlink:href="#b" x="29.996"/><text y="1.67" class="f">root@Artem:~#</text><text x="14.028" y="1.67" class="f">brain-progressio</text></svg><svg x="2160"><use xlink:href="#a"/><use xlink:href="#b" x="30.996"/><use xlink:href="#2"/></svg><svg x="2280"><use xlink:href="#a"/><use xlink:href="#b" x="-.004" y="2.146"/><use xlink:href="#2"/></svg><svg x="2400"><use xlink:href="#a"/><use xlink:href="#b" x="-.004" y="4.317"/><use xlink:href="#2"/><use xlink:href="#3" y="2.171"/></svg><svg x="2520"><use xlink:href="#a"/><use xlink:href="#b" x="-.004" y="6.488"/><use xlink:href="#2"/><use xlink:href="#3" y="2.171"/><use xlink:href="#4" y="4.342"/></svg><svg x="2640"><use xlink:href="#a"/><use xlink:href="#b" x="21.996" y="6.488"/><use xlink:href="#2"/><use xlink:href="#3" y="2.171"/><use xlink:href="#4" y="4.342"/><text y="8.183" class="f">May</text><text x="4.008" y="8.183" class="f">I</text><text x="6.012" y="8.183" class="f">have</text><text x="11.022" y="8.183" class="f">your</text><text x="16.032" y="8.183" class="f">name?</text></svg><svg x="2760"><use xlink:href="#a"/><use xlink:href="#b" x="22.996" y="6.488"/><use xlink:href="#2"/><use xlink:href="#3" y="2.171"/><use xlink:href="#4" y="4.342"/><text y="8.183" class="f">May</text><text x="4.008" y="8.183" class="f">I</text><text x="6.012" y="8.183" class="f">have</text><text x="11.022" y="8.183" class="f">your</text><text x="16.032" y="8.183" class="f">name?</text><text x="22.044" y="8.183" class="f">A</text></svg><svg x="2880"><use xlink:href="#a"/><use xlink:href="#b" x="23.996" y="6.488"/><use xlink:href="#2"/><use xlink:href="#3" y="2.171"/><use xlink:href="#4" y="4.342"/><text y="8.183" class="f">May</text><text x="4.008" y="8.183" class="f">I</text><text x="6.012" y="8.183" class="f">have</text><text x="11.022" y="8.183" class="f">your</text><text x="16.032" y="8.183" class="f">name?</text><text x="22.044" y="8.183" class="f">Ar</text></svg><svg x="3000"><use xlink:href="#a"/><use xlink:href="#b" x="24.996" y="6.488"/><use xlink:href="#2"/><use xlink:href="#3" y="2.171"/><use xlink:href="#4" y="4.342"/><text y="8.183" class="f">May</text><text x="4.008" y="8.183" class="f">I</text><text x="6.012" y="8.183" class="f">have</text><text x="11.022" y="8.183" class="f">your</text><text x="16.032" y="8.183" class="f">name?</text><text x="22.044" y="8.183" class="f">Art</text></svg><svg x="3120"><use xlink:href="#a"/><use xlink:href="#b" x="25.996" y="6.488"/><use xlink:href="#2"/><use xlink:href="#3" y="2.171"/><use xlink:href="#4" y="4.342"/><text y="8.183" class="f">May</text><text x="4.008" y="8.183" class="f">I</text><text x="6.012" y="8.183" class="f">have</text><text x="11.022" y="8.183" class="f">your</text><text x="16.032" y="8.183" class="f">name?</text><text x="22.044" y="8.183" class="f">Arte</text></svg><svg x="3240"><use xlink:href="#a"/><use xlink:href="#b" x="26.996" y="6.488"/><use xlink:href="#2"/><use xlink:href="#3" y="2.171"/><use xlink:href="#4" y="4.342"/><use xlink:href="#5" y="6.513"/></svg><svg x="3360"><use xlink:href="#a"/><use xlink:href="#b" x="-.004" y="8.659"/><use xlink:href="#2"/><use xlink:href="#3" y="2.171"/><use xlink:href="#4" y="4.342"/><use xlink:href="#5" y="6.513"/></svg><svg x="3480"><use xlink:href="#a"/><use xlink:href="#b" x="-.004" y="10.83"/><use xlink:href="#2"/><use xlink:href="#3" y="2.171"/><use xlink:href="#4" y="4.342"/><use xlink:href="#5" y="6.513"/><use xlink:href="#6" y="8.684"/></svg><svg x="3600"><use xlink:href="#a"/><use xlink:href="#b" x="12.996" y="15.172"/><use xlink:href="#2"/><use xlink:href="#3" y="2.171"/><use xlink:href="#4" y="4.342"/><use xlink:href="#5" y="6.513"/><use xlink:href="#6" y="8.684"/><use xlink:href="#7" y="10.855"/><use xlink:href="#8" y="13.026"/><use xlink:href="#9" y="15.197"/></svg><svg x="3720"><use xlink:href="#a"/><use xlink:href="#b" x="13.996" y="15.172"/><use xlink:href="#2"/><use xlink:href="#3" y="2.171"/><use xlink:href="#4" y="4.342"/><use xlink:href="#5" y="6.513"/><use xlink:href="#6" y="8.684"/><use xlink:href="#7" y="10.855"/><use xlink:href="#8" y="13.026"/><use xlink:href="#10" y="15.197"/></svg><svg x="3840"><use xlink:href="#a"/><use xlink:href="#b" x="-.004" y="17.343"/><use xlink:href="#2"/><use xlink:href="#3" y="2.171"/><use xlink:href="#4" y="4.342"/><use xlink:href="#5" y="6.513"/><use xlink:href="#6" y="8.684"/><use xlink:href="#7" y="10.855"/><use xlink:href="#8" y="13.026"/><use xlink:href="#10" y="15.197"/></svg><svg x="3960"><use xlink:href="#a"/><use xlink:href="#b" x="-.004" y="19.514"/><use xlink:href="#2"/><use xlink:href="#3" y="2.171"/><use xlink:href="#4" y="4.342"/><use xlink:href="#5" y="6.513"/><use xlink:href="#6" y="8.684"/><use xlink:href="#7" y="10.855"/><use xlink:href="#8" y="13.026"/><use xlink:href="#10" y="15.197"/><use xlink:href="#11" y="17.368"/></svg><svg x="4080"><use xlink:href="#a"/><use xlink:href="#b" x="-.004" y="21.685"/><use xlink:href="#2"/><use xlink:href="#3" y="2.171"/><use xlink:href="#4" y="4.342"/><use xlink:href="#5" y="6.513"/><use xlink:href="#6" y="8.684"/><use xlink:href="#7" y="10.855"/><use xlink:href="#8" y="13.026"/><use xlink:href="#10" y="15.197"/><use xlink:href="#11" y="17.368"/><use xlink:href="#12" y="19.539"/></svg><svg x="4200"><use xlink:href="#a"/><use xlink:href="#b" x="12.996" y="23.856"/><use xlink:href="#2"/><use xlink:href="#3" y="2.171"/><use xlink:href="#4" y="4.342"/><use xlink:href="#5" y="6.513"/><use xlink:href="#6" y="8.684"/><use xlink:href="#7" y="10.855"/><use xlink:href="#8" y="13.026"/><use xlink:href="#10" y="15.197"/><use xlink:href="#11" y="17.368"/><use xlink:href="#12" y="19.539"/><use xlink:href="#13" y="21.71"/><use xlink:href="#9" y="23.881"/></svg><svg x="4320"><use xlink:href="#a"/><use xlink:href="#b" x="13.996" y="23.856"/><use xlink:href="#2"/><use xlink:href="#3" y="2.171"/><use xlink:href="#4" y="4.342"/><use xlink:href="#5" y="6.513"/><use xlink:href="#6" y="8.684"/><use xlink:href="#7" y="10.855"/><use xlink:href="#8" y="13.026"/><use xlink:href="#10" y="15.197"/><use xlink:href="#11" y="17.368"/><use xlink:href="#12" y="19.539"/><use xlink:href="#13" y="21.71"/><use xlink:href="#14" y="23.881"/></svg><svg x="4440"><use xlink:href="#a"/><use xlink:href="#b" x="14.996" y="23.856"/><use xlink:href="#2"/><use xlink:href="#3" y="2.171"/><use xlink:href="#4" y="4.342"/><use xlink:href="#5" y="6.513"/><use xlink:href="#6" y="8.684"/><use xlink:href="#7" y="10.855"/><use xlink:href="#8" y="13.026"/><use xlink:href="#10" y="15.197"/><use xlink:href="#11" y="17.368"/><use xlink:href="#12" y="19.539"/><use xlink:href="#13" y="21.71"/><use xlink:href="#15" y="23.881"/></svg><svg x="4560"><use xlink:href="#a"/><use xlink:href="#b" x="-.004" y="26.027"/><use xlink:href="#2"/><use xlink:href="#3" y="2.171"/><use xlink:href="#4" y="4.342"/><use xlink:href="#5" y="6.513"/><use xlink:href="#6" y="8.684"/><use xlink:href="#7" y="10.855"/><use xlink:href="#8" y="13.026"/><use xlink:href="#10" y="15.197"/><use xlink:href="#11" y="17.368"/><use xlink:href="#12" y="19.539"/><use xlink:href="#13" y="21.71"/><use xlink:href="#15" y="23.881"/></svg><svg x="4680"><use xlink:href="#a"/><use xlink:href="#b" x="-.004" y="28.198"/><use xlink:href="#2"/><use xlink:href="#3" y="2.171"/><use xlink:href="#4" y="4.342"/><use xlink:href="#5" y="6.513"/><use xlink:href="#6" y="8.684"/><use xlink:href="#7" y="10.855"/><use xlink:href="#8" y="13.026"/><use xlink:href="#10" y="15.197"/><use xlink:href="#11" y="17.368"/><use xlink:href="#12" y="19.539"/><use xlink:href="#13" y="21.71"/><use xlink:href="#15" y="23.881"/><use xlink:href="#16" y="26.052"/></svg><svg x="4800"><use xlink:href="#a"/><use xlink:href="#b" x="12.996" y="30.369"/><use xlink:href="#2"/><use xlink:href="#3" y="2.171"/><use xlink:href="#4" y="4.342"/><use xlink:href="#5" y="6.513"/><use xlink:href="#6" y="8.684"/><use xlink:href="#7" y="10.855"/><use xlink:href="#8" y="13.026"/><use xlink:href="#10" y="15.197"/><use xlink:href="#11" y="17.368"/><use xlink:href="#12" y="19.539"/><use xlink:href="#13" y="21.71"/><use xlink:href="#15" y="23.881"/><use xlink:href="#16" y="26.052"/><use xlink:href="#17" y="28.223"/><use xlink:href="#9" y="30.394"/></svg><svg x="4920"><use xlink:href="#a"/><use xlink:href="#b" x="13.996" y="30.369"/><use xlink:href="#2"/><use xlink:href="#3" y="2.171"/><use xlink:href="#4" y="4.342"/><use xlink:href="#5" y="6.513"/><use xlink:href="#6" y="8.684"/><use xlink:href="#7" y="10.855"/><use xlink:href="#8" y="13.026"/><use xlink:href="#10" y="15.197"/><use xlink:href="#11" y="17.368"/><use xlink:href="#12" y="19.539"/><use xlink:href="#13" y="21.71"/><use xlink:href="#15" y="23.881"/><use xlink:href="#16" y="26.052"/><use xlink:href="#17" y="28.223"/><text y="32.064" class="f">Your</text><text x="5.01" y="32.064" class="f">answer:</text><text x="13.026" y="32.064" class="f">7</text></svg><svg x="5040"><use xlink:href="#a"/><use xlink:href="#b" x="14.996" y="30.369"/><use xlink:href="#2"/><use xlink:href="#3" y="2.171"/><use xlink:href="#4" y="4.342"/><use xlink:href="#5" y="6.513"/><use xlink:href="#6" y="8.684"/><use xlink:href="#7" y="10.855"/><use xlink:href="#8" y="13.026"/><use xlink:href="#10" y="15.197"/><use xlink:href="#11" y="17.368"/><use xlink:href="#12" y="19.539"/><use xlink:href="#13" y="21.71"/><use xlink:href="#15" y="23.881"/><use xlink:href="#16" y="26.052"/><use xlink:href="#17" y="28.223"/><use xlink:href="#18" y="30.394"/></svg><svg x="5160"><use xlink:href="#a"/><use xlink:href="#b" x="-.004" y="32.54"/><use xlink:href="#2"/><use xlink:href="#3" y="2.171"/><use xlink:href="#4" y="4.342"/><use xlink:href="#5" y="6.513"/><use xlink:href="#6" y="8.684"/><use xlink:href="#7" y="10.855"/><use xlink:href="#8" y="13.026"/><use xlink:href="#10" y="15.197"/><use xlink:href="#11" y="17.368"/><use xlink:href="#12" y="19.539"/><use xlink:href="#13" y="21.71"/><use xlink:href="#15" y="23.881"/><use xlink:href="#16" y="26.052"/><use xlink:href="#17" y="28.223"/><use xlink:href="#18" y="30.394"/></svg><svg x="5280"><use xlink:href="#a"/><use xlink:href="#b" x="-.004" y="36.882"/><use xlink:href="#2"/><use xlink:href="#3" y="2.171"/><use xlink:href="#4" y="4.342"/><use xlink:href="#5" y="6.513"/><use xlink:href="#6" y="8.684"/><use xlink:href="#7" y="10.855"/><use xlink:href="#8" y="13.026"/><use xlink:href="#10" y="15.197"/><use xlink:href="#11" y="17.368"/><use xlink:href="#12" y="19.539"/><use xlink:href="#13" y="21.71"/><use xlink:href="#15" y="23.881"/><use xlink:href="#16" y="26.052"/><use xlink:href="#17" y="28.223"/><use xlink:href="#18" y="30.394"/><use xlink:href="#16" y="32.565"/><use xlink:href="#19" y="34.736"/></svg><svg x="5400"><use xlink:href="#a"/><use xlink:href="#b" x="12.996" y="36.882"/><use xlink:href="#2"/><use xlink:href="#3" y="2.171"/><use xlink:href="#4" y="4.342"/><use xlink:href="#5" y="6.513"/><use xlink:href="#6" y="8.684"/><use xlink:href="#7" y="10.855"/><use xlink:href="#8" y="13.026"/><use xlink:href="#10" y="15.197"/><use xlink:href="#11" y="17.368"/><use xlink:href="#12" y="19.539"/><use xlink:href="#13" y="21.71"/><use xlink:href="#15" y="23.881"/><use xlink:href="#16" y="26.052"/><use xlink:href="#17" y="28.223"/><use xlink:href="#18" y="30.394"/><use xlink:href="#16" y="32.565"/><use xlink:href="#19" y="34.736"/><use xlink:href="#9" y="36.907"/></svg><svg x="5520"><use xlink:href="#a"/><use xlink:href="#b" x="13.996" y="36.882"/><use xlink:href="#2"/><use xlink:href="#3" y="2.171"/><use xlink:href="#4" y="4.342"/><use xlink:href="#5" y="6.513"/><use xlink:href="#6" y="8.684"/><use xlink:href="#7" y="10.855"/><use xlink:href="#8" y="13.026"/><use xlink:href="#10" y="15.197"/><use xlink:href="#11" y="17.368"/><use xlink:href="#12" y="19.539"/><use xlink:href="#13" y="21.71"/><use xlink:href="#15" y="23.881"/><use xlink:href="#16" y="26.052"/><use xlink:href="#17" y="28.223"/><use xlink:href="#18" y="30.394"/><use xlink:href="#16" y="32.565"/><use xlink:href="#19" y="34.736"/><use xlink:href="#14" y="36.907"/></svg><svg x="5640"><use xlink:href="#a"/><use xlink:href="#b" x="14.996" y="36.882"/><use xlink:href="#2"/><use xlink:href="#3" y="2.171"/><use xlink:href="#4" y="4.342"/><use xlink:href="#5" y="6.513"/><use xlink:href="#6" y="8.684"/><use xlink:href="#7" y="10.855"/><use xlink:href="#8" y="13.026"/><use xlink:href="#10" y="15.197"/><use xlink:href="#11" y="17.368"/><use xlink:href="#12" y="19.539"/><use xlink:href="#13" y="21.71"/><use xlink:href="#15" y="23.881"/><use xlink:href="#16" y="26.052"/><use xlink:href="#17" y="28.223"/><use xlink:href="#18" y="30.394"/><use xlink:href="#16" y="32.565"/><use xlink:href="#19" y="34.736"/><use xlink:href="#20" y="36.907"/></svg><svg x="5760"><use xlink:href="#a"/><use xlink:href="#b" x="-.004" y="39.053"/><use xlink:href="#2"/><use xlink:href="#3" y="2.171"/><use xlink:href="#4" y="4.342"/><use xlink:href="#5" y="6.513"/><use xlink:href="#6" y="8.684"/><use xlink:href="#7" y="10.855"/><use xlink:href="#8" y="13.026"/><use xlink:href="#10" y="15.197"/><use xlink:href="#11" y="17.368"/><use xlink:href="#12" y="19.539"/><use xlink:href="#13" y="21.71"/><use xlink:href="#15" y="23.881"/><use xlink:href="#16" y="26.052"/><use xlink:href="#17" y="28.223"/><use xlink:href="#18" y="30.394"/><use xlink:href="#16" y="32.565"/><use xlink:href="#19" y="34.736"/><use xlink:href="#20" y="36.907"/></svg><svg x="5880"><use xlink:href="#a"/><use xlink:href="#b" x="-.004" y="43.395"/><use xlink:href="#2"/><use xlink:href="#3" y="2.171"/><use xlink:href="#4" y="4.342"/><use xlink:href="#5" y="6.513"/><use xlink:href="#6" y="8.684"/><use xlink:href="#7" y="10.855"/><use xlink:href="#8" y="13.026"/><use xlink:href="#10" y="15.197"/><use xlink:href="#11" y="17.368"/><use xlink:href="#12" y="19.539"/><use xlink:href="#13" y="21.71"/><use xlink:href="#15" y="23.881"/><use xlink:href="#16" y="26.052"/><use xlink:href="#17" y="28.223"/><use xlink:href="#18" y="30.394"/><use xlink:href="#16" y="32.565"/><use xlink:href="#19" y="34.736"/><use xlink:href="#20" y="36.907"/><use xlink:href="#16" y="39.078"/><use xlink:href="#21" y="41.249"/></svg><svg x="6000"><use xlink:href="#a"/><use xlink:href="#b" x="13.996" y="43.395"/><use xlink:href="#2"/><use xlink:href="#3" y="2.171"/><use xlink:href="#4" y="4.342"/><use xlink:href="#5" y="6.513"/><use xlink:href="#6" y="8.684"/><use xlink:href="#7" y="10.855"/><use xlink:href="#8" y="13.026"/><use xlink:href="#10" y="15.197"/><use xlink:href="#11" y="17.368"/><use xlink:href="#12" y="19.539"/><use xlink:href="#13" y="21.71"/><use xlink:href="#15" y="23.881"/><use xlink:href="#16" y="26.052"/><use xlink:href="#17" y="28.223"/><use xlink:href="#18" y="30.394"/><use xlink:href="#16" y="32.565"/><use xlink:href="#19" y="34.736"/><use xlink:href="#20" y="36.907"/><use xlink:href="#16" y="39.078"/><use xlink:href="#21" y="41.249"/><use xlink:href="#1" y="43.42"/></svg><svg x="6120"><use xlink:href="#a"/><use xlink:href="#b" x="-.004" y="45.566"/><use xlink:href="#2"/><use xlink:href="#3" y="2.171"/><use xlink:href="#4" y="4.342"/><use xlink:href="#5" y="6.513"/><use xlink:href="#6" y="8.684"/><use xlink:href="#7" y="10.855"/><use xlink:href="#8" y="13.026"/><use xlink:href="#10" y="15.197"/><use xlink:href="#11" y="17.368"/><use xlink:href="#12" y="19.539"/><use xlink:href="#13" y="21.71"/><use xlink:href="#15" y="23.881"/><use xlink:href="#16" y="26.052"/><use xlink:href="#17" y="28.223"/><use xlink:href="#18" y="30.394"/><use xlink:href="#16" y="32.565"/><use xlink:href="#19" y="34.736"/><use xlink:href="#20" y="36.907"/><use xlink:href="#16" y="39.078"/><use xlink:href="#21" y="41.249"/><text y="45.09" class="f">root@Artem:~#</text><text x="14.028" y="45.09" class="f">exit</text></svg></svg></g></g></svg></svg>