<svg xmlns="http://www.w3.org/2000/svg" xmlns:xlink="http://www.w3.org/1999/xlink" width="1240" height="711.3"><rect width="1240" height="711.3" rx="5" ry="5" class="a"/><svg y="0%" x="0%"><circle cx="20" cy="20" r="6" fill="#ff5f58"/><circle cx="40" cy="20" r="6" fill="#ffbd2e"/><circle cx="60" cy="20" r="6" fill="#18c132"/></svg><svg height="651.3" viewBox="0 0 120 65.13" width="1200" x="15" xmlns="http://www.w3.org/2000/svg" xmlns:xlink="http://www.w3.org/1999/xlink" y="50"><style>@keyframes i{0%{transform:translateX(0)}.44%{transform:translateX(-120px)}2.83%{transform:translateX(-240px)}4.29%{transform:translateX(-360px)}4.65%{transform:translateX(-480px)}5.9%{transform:translateX(-600px)}6.87%{transform:translateX(-720px)}9.08%{transform:translateX(-840px)}10.91%{transform:translateX(-960px)}11.32%{transform:translateX(-1080px)}13.23%{transform:translateX(-1200px)}14.12%{transform:translateX(-1320px)}16.01%{transform:translateX(-1440px)}16.44%{transform:translateX(-1560px)}16.63%{transform:translateX(-1680px)}16.65%{transform:translateX(-1800px)}20.36%{transform:translateX(-1920px)}21.87%{transform:translateX(-2040px)}22.8%{transform:translateX(-2160px)}24.36%{transform:translateX(-2280px)}25.41%{transform:translateX(-2400px)}27.95%{transform:translateX(-2520px)}27.96%{transform:translateX(-2760px)}38.38%{transform:translateX(-2880px)}38.98%{transform:translateX(-3000px)}39.66%{transform:translateX(-3120px)}43.35%{transform:translateX(-3360px)}43.36%{transform:translateX(-3480px)}52.25%{transform:translateX(-3600px)}54.12%{transform:translateX(-3720px)}60.34%{transform:translateX(-3960px)}60.35%{transform:translateX(-4080px)}67.2%{transform:translateX(-4200px)}70.89%{transform:translateX(-4440px)}70.9%{transform:translateX(-4560px)}82.79%{transform:translateX(-4680px)}83.26%{transform:translateX(-4800px)}91.17%{transform:translateX(-5040px)}91.19%{transform:translateX(-5160px)}91.24%{transform:translateX(-5280px)}to{transform:translateX(-5400px)}}.a{fill:#282d35}.f{fill:#b9c0cb;white-space:pre}</style><g font-family="Monaco,Consolas,Menlo,'Bitstream Vera Sans Mono','Powerline Symbols',monospace" font-size="1.67"><defs><symbol id="1"><text y="1.67" class="f">root@Artem:~#</text></symbol><symbol id="2"><text y="1.67" class="f">root@Artem:~#</text><text x="14.028" y="1.67" class="f">brain-calc</text></symbol><symbol id="3"><text y="1.67" class="f">(node:237)</text><text x="11.022" y="1.67" class="f">ExperimentalWarning:</text><text x="32.064" y="1.67" class="f">The</text><text x="36.072" y="1.67" class="f">ESM</text><text x="40.08" y="1.67" class="f">module</text><text x="47.094" y="1.67" class="f">loader</text><text x="54.108" y="1.67" class="f">is</text><text x="57.114" y="1.67" class="f">experimental.</text></symbol><symbol id="4"><text y="1.67" class="f">Welcome</text><text x="8.016" y="1.67" class="f">to</text><text x="11.022" y="1.67" class="f">the</text><text x="15.03" y="1.67" class="f">Brain</text><text x="21.042" y="1.67" class="f">Games!</text></symbol><symbol id="5"><text y="1.67" class="f">May</text><text x="4.008" y="1.67" class="f">I</text><text x="6.012" y="1.67" class="f">have</text><text x="11.022" y="1.67" class="f">your</text><text x="16.032" y="1.67" class="f">name?</text><text x="22.044" y="1.67" class="f">Artem</text></symbol><symbol id="6"><text y="1.67" class="f">Hello,</text><text x="7.014" y="1.67" class="f">Artem!</text></symbol><symbol id="7"><text y="1.67" class="f">What</text><text x="5.01" y="1.67" class="f">is</text><text x="8.016" y="1.67" class="f">the</text><text x="12.024" y="1.67" class="f">result</text><text x="19.038" y="1.67" class="f">of</text><text x="22.044" y="1.67" class="f">the</text><text x="26.052" y="1.67" class="f">expression?</text></symbol><symbol id="8"><text y="1.67" class="f">Question:</text><text x="10.02" y="1.67" class="f">3</text><text x="12.024" y="1.67" class="f">-</text><text x="14.028" y="1.67" class="f">11</text></symbol><symbol id="9"><text y="1.67" class="f">Your</text><text x="5.01" y="1.67" class="f">answer:</text></symbol><symbol id="10"><text y="1.67" class="f">Your</text><text x="5.01" y="1.67" class="f">answer:</text><text x="13.026" y="1.67" class="f">-</text></symbol><symbol id="11"><text y="1.67" class="f">Your</text><text x="5.01" y="1.67" class="f">answer:</text><text x="13.026" y="1.67" class="f">-11</text></symbol><symbol id="12"><text y="1.67" class="f">&quot;-11&quot;</text><text x="6.012" y="1.67" class="f">is</text><text x="9.018" y="1.67" class="f">wrong</text><text x="15.03" y="1.67" class="f">answer</text><text x="22.044" y="1.67" class="f">;(.</text><text x="26.052" y="1.67" class="f">Correct</text><text x="34.068" y="1.67" class="f">answer</text><text x="41.082" y="1.67" class="f">was</text><text x="45.09" y="1.67" class="f">&quot;-8&quot;.</text></symbol><symbol id="13"><text y="1.67" class="f">Let&apos;s</text><text x="6.012" y="1.67" class="f">try</text><text x="10.02" y="1.67" class="f">again,</text><text x="17.034" y="1.67" class="f">Artem</text></symbol><symbol id="14"><text y="1.67" class="f">Question:</text><text x="10.02" y="1.67" class="f">2</text><text x="12.024" y="1.67" class="f">-</text><text x="14.028" y="1.67" class="f">8</text></symbol><symbol id="15"><text y="1.67" class="f">Your</text><text x="5.01" y="1.67" class="f">answer:</text><text x="13.026" y="1.67" class="f">-6</text></symbol><symbol id="16"><text y="1.67" class="f">Correct!</text></symbol><symbol id="17"><text y="1.67" class="f">Question:</text><text x="10.02" y="1.67" class="f">1</text><text x="12.024" y="1.67" class="f">+</text><text x="14.028" y="1.67" class="f">6</text></symbol><symbol id="18"><text y="1.67" class="f">Your</text><text x="5.01" y="1.67" class="f">answer:</text><text x="13.026" y="1.67" class="f">7</text></symbol><symbol id="19"><text y="1.67" class="f">Question:</text><text x="10.02" y="1.67" class="f">3</text><text x="12.024" y="1.67" class="f">+</text><text x="14.028" y="1.67" class="f">13</text></symbol><symbol id="20"><text y="1.67" class="f">Your</text><text x="5.01" y="1.67" class="f">answer:</text><text x="13.026" y="1.67" class="f">16</text></symbol><symbol id="21"><text y="1.67" class="f">Congratulations,</text><text x="17.034" y="1.67" class="f">Artem!</text></symbol><symbol id="a"><path fill="transparent" d="M0 0h120v30H0z"/></symbol><symbol id="b"><path fill="#6f7683" d="M0 0h1.102v2.171H0z"/></symbol></defs><path class="a" d="M0 0h120v65.13H0z"/><g style="animation-duration:20.632809s;animation-iteration-count:infinite;animation-name:i;animation-timing-function:steps(1,end)"><svg width="5520"><svg><use xlink:href="#a"/><use xlink:href="#b" x="-.004"/></svg><svg x="120"><use xlink:href="#a"/><use xlink:href="#b" x="13.996"/><use xlink:href="#1"/></svg><svg x="240"><use xlink:href="#a"/><use xlink:href="#b" x="14.996"/><text y="1.67" class="f">root@Artem:~#</text><text x="14.028" y="1.67" class="f">b</text></svg><svg x="360"><use xlink:href="#a"/><use xlink:href="#b" x="15.996"/><text y="1.67" class="f">root@Artem:~#</text><text x="14.028" y="1.67" class="f">br</text></svg><svg x="480"><use xlink:href="#a"/><use xlink:href="#b" x="16.996"/><text y="1.67" class="f">root@Artem:~#</text><text x="14.028" y="1.67" class="f">bra</text></svg><svg x="600"><use xlink:href="#a"/><use xlink:href="#b" x="17.996"/><text y="1.67" class="f">root@Artem:~#</text><text x="14.028" y="1.67" class="f">brai</text></svg><svg x="720"><use xlink:href="#a"/><use xlink:href="#b" x="18.996"/><text y="1.67" class="f">root@Artem:~#</text><text x="14.028" y="1.67" class="f">brain</text></svg><svg x="840"><use xlink:href="#a"/><use xlink:href="#b" x="19.996"/><text y="1.67" class="f">root@Artem:~#</text><text x="14.028" y="1.67" class="f">brain-</text></svg><svg x="960"><use xlink:href="#a"/><use xlink:href="#b" x="20.996"/><text y="1.67" class="f">root@Artem:~#</text><text x="14.028" y="1.67" class="f">brain-c</text></svg><svg x="1080"><use xlink:href="#a"/><use xlink:href="#b" x="21.996"/><text y="1.67" class="f">root@Artem:~#</text><text x="14.028" y="1.67" class="f">brain-ca</text></svg><svg x="1200"><use xlink:href="#a"/><use xlink:href="#b" x="22.996"/><text y="1.67" class="f">root@Artem:~#</text><text x="14.028" y="1.67" class="f">brain-cal</text></svg><svg x="1320"><use xlink:href="#a"/><use xlink:href="#b" x="23.996"/><use xlink:href="#2"/></svg><svg x="1440"><use xlink:href="#a"/><use xlink:href="#b" x="-.004" y="2.146"/><use xlink:href="#2"/></svg><svg x="1560"><use xlink:href="#a"/><use xlink:href="#b" x="-.004" y="4.317"/><use xlink:href="#2"/><use xlink:href="#3" y="2.171"/></svg><svg x="1680"><use xlink:href="#a"/><use xlink:href="#b" x="-.004" y="6.488"/><use xlink:href="#2"/><use xlink:href="#3" y="2.171"/><use xlink:href="#4" y="4.342"/></svg><svg x="1800"><use xlink:href="#a"/><use xlink:href="#b" x="21.996" y="6.488"/><use xlink:href="#2"/><use xlink:href="#3" y="2.171"/><use xlink:href="#4" y="4.342"/><text y="8.183" class="f">May</text><text x="4.008" y="8.183" class="f">I</text><text x="6.012" y="8.183" class="f">have</text><text x="11.022" y="8.183" class="f">your</text><text x="16.032" y="8.183" class="f">name?</text></svg><svg x="1920"><use xlink:href="#a"/><use xlink:href="#b" x="22.996" y="6.488"/><use xlink:href="#2"/><use xlink:href="#3" y="2.171"/><use xlink:href="#4" y="4.342"/><text y="8.183" class="f">May</text><text x="4.008" y="8.183" class="f">I</text><text x="6.012" y="8.183" class="f">have</text><text x="11.022" y="8.183" class="f">your</text><text x="16.032" y="8.183" class="f">name?</text><text x="22.044" y="8.183" class="f">A</text></svg><svg x="2040"><use xlink:href="#a"/><use xlink:href="#b" x="23.996" y="6.488"/><use xlink:href="#2"/><use xlink:href="#3" y="2.171"/><use xlink:href="#4" y="4.342"/><text y="8.183" class="f">May</text><text x="4.008" y="8.183" class="f">I</text><text x="6.012" y="8.183" class="f">have</text><text x="11.022" y="8.183" class="f">your</text><text x="16.032" y="8.183" class="f">name?</text><text x="22.044" y="8.183" class="f">Ar</text></svg><svg x="2160"><use xlink:href="#a"/><use xlink:href="#b" x="24.996" y="6.488"/><use xlink:href="#2"/><use xlink:href="#3" y="2.171"/><use xlink:href="#4" y="4.342"/><text y="8.183" class="f">May</text><text x="4.008" y="8.183" class="f">I</text><text x="6.012" y="8.183" class="f">have</text><text x="11.022" y="8.183" class="f">your</text><text x="16.032" y="8.183" class="f">name?</text><text x="22.044" y="8.183" class="f">Art</text></svg><svg x="2280"><use xlink:href="#a"/><use xlink:href="#b" x="25.996" y="6.488"/><use xlink:href="#2"/><use xlink:href="#3" y="2.171"/><use xlink:href="#4" y="4.342"/><text y="8.183" class="f">May</text><text x="4.008" y="8.183" class="f">I</text><text x="6.012" y="8.183" class="f">have</text><text x="11.022" y="8.183" class="f">your</text><text x="16.032" y="8.183" class="f">name?</text><text x="22.044" y="8.183" class="f">Arte</text></svg><svg x="2400"><use xlink:href="#a"/><use xlink:href="#b" x="26.996" y="6.488"/><use xlink:href="#2"/><use xlink:href="#3" y="2.171"/><use xlink:href="#4" y="4.342"/><use xlink:href="#5" y="6.513"/></svg><svg x="2520"><use xlink:href="#a"/><use xlink:href="#b" x="-.004" y="8.659"/><use xlink:href="#2"/><use xlink:href="#3" y="2.171"/><use xlink:href="#4" y="4.342"/><use xlink:href="#5" y="6.513"/></svg><svg x="2640"><use xlink:href="#a"/><use xlink:href="#b" x="-.004" y="10.83"/><use xlink:href="#2"/><use xlink:href="#3" y="2.171"/><use xlink:href="#4" y="4.342"/><use xlink:href="#5" y="6.513"/><use xlink:href="#6" y="8.684"/></svg><svg x="2760"><use xlink:href="#a"/><use xlink:href="#b" x="12.996" y="15.172"/><use xlink:href="#2"/><use xlink:href="#3" y="2.171"/><use xlink:href="#4" y="4.342"/><use xlink:href="#5" y="6.513"/><use xlink:href="#6" y="8.684"/><use xlink:href="#7" y="10.855"/><use xlink:href="#8" y="13.026"/><use xlink:href="#9" y="15.197"/></svg><svg x="2880"><use xlink:href="#a"/><use xlink:href="#b" x="13.996" y="15.172"/><use xlink:href="#2"/><use xlink:href="#3" y="2.171"/><use xlink:href="#4" y="4.342"/><use xlink:href="#5" y="6.513"/><use xlink:href="#6" y="8.684"/><use xlink:href="#7" y="10.855"/><use xlink:href="#8" y="13.026"/><use xlink:href="#10" y="15.197"/></svg><svg x="3000"><use xlink:href="#a"/><use xlink:href="#b" x="14.996" y="15.172"/><use xlink:href="#2"/><use xlink:href="#3" y="2.171"/><use xlink:href="#4" y="4.342"/><use xlink:href="#5" y="6.513"/><use xlink:href="#6" y="8.684"/><use xlink:href="#7" y="10.855"/><use xlink:href="#8" y="13.026"/><text y="16.867" class="f">Your</text><text x="5.01" y="16.867" class="f">answer:</text><text x="13.026" y="16.867" class="f">-1</text></svg><svg x="3120"><use xlink:href="#a"/><use xlink:href="#b" x="15.996" y="15.172"/><use xlink:href="#2"/><use xlink:href="#3" y="2.171"/><use xlink:href="#4" y="4.342"/><use xlink:href="#5" y="6.513"/><use xlink:href="#6" y="8.684"/><use xlink:href="#7" y="10.855"/><use xlink:href="#8" y="13.026"/><use xlink:href="#11" y="15.197"/></svg><svg x="3240"><use xlink:href="#a"/><use xlink:href="#b" x="-.004" y="17.343"/><use xlink:href="#2"/><use xlink:href="#3" y="2.171"/><use xlink:href="#4" y="4.342"/><use xlink:href="#5" y="6.513"/><use xlink:href="#6" y="8.684"/><use xlink:href="#7" y="10.855"/><use xlink:href="#8" y="13.026"/><use xlink:href="#11" y="15.197"/></svg><svg x="3360"><use xlink:href="#a"/><use xlink:href="#b" x="-.004" y="19.514"/><use xlink:href="#2"/><use xlink:href="#3" y="2.171"/><use xlink:href="#4" y="4.342"/><use xlink:href="#5" y="6.513"/><use xlink:href="#6" y="8.684"/><use xlink:href="#7" y="10.855"/><use xlink:href="#8" y="13.026"/><use xlink:href="#11" y="15.197"/><use xlink:href="#12" y="17.368"/></svg><svg x="3480"><use xlink:href="#a"/><use xlink:href="#b" x="12.996" y="23.856"/><use xlink:href="#2"/><use xlink:href="#3" y="2.171"/><use xlink:href="#4" y="4.342"/><use xlink:href="#5" y="6.513"/><use xlink:href="#6" y="8.684"/><use xlink:href="#7" y="10.855"/><use xlink:href="#8" y="13.026"/><use xlink:href="#11" y="15.197"/><use xlink:href="#12" y="17.368"/><use xlink:href="#13" y="19.539"/><use xlink:href="#14" y="21.71"/><use xlink:href="#9" y="23.881"/></svg><svg x="3600"><use xlink:href="#a"/><use xlink:href="#b" x="13.996" y="23.856"/><use xlink:href="#2"/><use xlink:href="#3" y="2.171"/><use xlink:href="#4" y="4.342"/><use xlink:href="#5" y="6.513"/><use xlink:href="#6" y="8.684"/><use xlink:href="#7" y="10.855"/><use xlink:href="#8" y="13.026"/><use xlink:href="#11" y="15.197"/><use xlink:href="#12" y="17.368"/><use xlink:href="#13" y="19.539"/><use xlink:href="#14" y="21.71"/><use xlink:href="#10" y="23.881"/></svg><svg x="3720"><use xlink:href="#a"/><use xlink:href="#b" x="14.996" y="23.856"/><use xlink:href="#2"/><use xlink:href="#3" y="2.171"/><use xlink:href="#4" y="4.342"/><use xlink:href="#5" y="6.513"/><use xlink:href="#6" y="8.684"/><use xlink:href="#7" y="10.855"/><use xlink:href="#8" y="13.026"/><use xlink:href="#11" y="15.197"/><use xlink:href="#12" y="17.368"/><use xlink:href="#13" y="19.539"/><use xlink:href="#14" y="21.71"/><use xlink:href="#15" y="23.881"/></svg><svg x="3840"><use xlink:href="#a"/><use xlink:href="#b" x="-.004" y="26.027"/><use xlink:href="#2"/><use xlink:href="#3" y="2.171"/><use xlink:href="#4" y="4.342"/><use xlink:href="#5" y="6.513"/><use xlink:href="#6" y="8.684"/><use xlink:href="#7" y="10.855"/><use xlink:href="#8" y="13.026"/><use xlink:href="#11" y="15.197"/><use xlink:href="#12" y="17.368"/><use xlink:href="#13" y="19.539"/><use xlink:href="#14" y="21.71"/><use xlink:href="#15" y="23.881"/></svg><svg x="3960"><use xlink:href="#a"/><use xlink:href="#b" x="-.004" y="28.198"/><use xlink:href="#2"/><use xlink:href="#3" y="2.171"/><use xlink:href="#4" y="4.342"/><use xlink:href="#5" y="6.513"/><use xlink:href="#6" y="8.684"/><use xlink:href="#7" y="10.855"/><use xlink:href="#8" y="13.026"/><use xlink:href="#11" y="15.197"/><use xlink:href="#12" y="17.368"/><use xlink:href="#13" y="19.539"/><use xlink:href="#14" y="21.71"/><use xlink:href="#15" y="23.881"/><use xlink:href="#16" y="26.052"/></svg><svg x="4080"><use xlink:href="#a"/><use xlink:href="#b" x="12.996" y="30.369"/><use xlink:href="#2"/><use xlink:href="#3" y="2.171"/><use xlink:href="#4" y="4.342"/><use xlink:href="#5" y="6.513"/><use xlink:href="#6" y="8.684"/><use xlink:href="#7" y="10.855"/><use xlink:href="#8" y="13.026"/><use xlink:href="#11" y="15.197"/><use xlink:href="#12" y="17.368"/><use xlink:href="#13" y="19.539"/><use xlink:href="#14" y="21.71"/><use xlink:href="#15" y="23.881"/><use xlink:href="#16" y="26.052"/><use xlink:href="#17" y="28.223"/><use xlink:href="#9" y="30.394"/></svg><svg x="4200"><use xlink:href="#a"/><use xlink:href="#b" x="13.996" y="30.369"/><use xlink:href="#2"/><use xlink:href="#3" y="2.171"/><use xlink:href="#4" y="4.342"/><use xlink:href="#5" y="6.513"/><use xlink:href="#6" y="8.684"/><use xlink:href="#7" y="10.855"/><use xlink:href="#8" y="13.026"/><use xlink:href="#11" y="15.197"/><use xlink:href="#12" y="17.368"/><use xlink:href="#13" y="19.539"/><use xlink:href="#14" y="21.71"/><use xlink:href="#15" y="23.881"/><use xlink:href="#16" y="26.052"/><use xlink:href="#17" y="28.223"/><use xlink:href="#18" y="30.394"/></svg><svg x="4320"><use xlink:href="#a"/><use xlink:href="#b" x="-.004" y="32.54"/><use xlink:href="#2"/><use xlink:href="#3" y="2.171"/><use xlink:href="#4" y="4.342"/><use xlink:href="#5" y="6.513"/><use xlink:href="#6" y="8.684"/><use xlink:href="#7" y="10.855"/><use xlink:href="#8" y="13.026"/><use xlink:href="#11" y="15.197"/><use xlink:href="#12" y="17.368"/><use xlink:href="#13" y="19.539"/><use xlink:href="#14" y="21.71"/><use xlink:href="#15" y="23.881"/><use xlink:href="#16" y="26.052"/><use xlink:href="#17" y="28.223"/><use xlink:href="#18" y="30.394"/></svg><svg x="4440"><use xlink:href="#a"/><use xlink:href="#b" x="-.004" y="34.711"/><use xlink:href="#2"/><use xlink:href="#3" y="2.171"/><use xlink:href="#4" y="4.342"/><use xlink:href="#5" y="6.513"/><use xlink:href="#6" y="8.684"/><use xlink:href="#7" y="10.855"/><use xlink:href="#8" y="13.026"/><use xlink:href="#11" y="15.197"/><use xlink:href="#12" y="17.368"/><use xlink:href="#13" y="19.539"/><use xlink:href="#14" y="21.71"/><use xlink:href="#15" y="23.881"/><use xlink:href="#16" y="26.052"/><use xlink:href="#17" y="28.223"/><use xlink:href="#18" y="30.394"/><use xlink:href="#16" y="32.565"/></svg><svg x="4560"><use xlink:href="#a"/><use xlink:href="#b" x="12.996" y="36.882"/><use xlink:href="#2"/><use xlink:href="#3" y="2.171"/><use xlink:href="#4" y="4.342"/><use xlink:href="#5" y="6.513"/><use xlink:href="#6" y="8.684"/><use xlink:href="#7" y="10.855"/><use xlink:href="#8" y="13.026"/><use xlink:href="#11" y="15.197"/><use xlink:href="#12" y="17.368"/><use xlink:href="#13" y="19.539"/><use xlink:href="#14" y="21.71"/><use xlink:href="#15" y="23.881"/><use xlink:href="#16" y="26.052"/><use xlink:href="#17" y="28.223"/><use xlink:href="#18" y="30.394"/><use xlink:href="#16" y="32.565"/><use xlink:href="#19" y="34.736"/><use xlink:href="#9" y="36.907"/></svg><svg x="4680"><use xlink:href="#a"/><use xlink:href="#b" x="13.996" y="36.882"/><use xlink:href="#2"/><use xlink:href="#3" y="2.171"/><use xlink:href="#4" y="4.342"/><use xlink:href="#5" y="6.513"/><use xlink:href="#6" y="8.684"/><use xlink:href="#7" y="10.855"/><use xlink:href="#8" y="13.026"/><use xlink:href="#11" y="15.197"/><use xlink:href="#12" y="17.368"/><use xlink:href="#13" y="19.539"/><use xlink:href="#14" y="21.71"/><use xlink:href="#15" y="23.881"/><use xlink:href="#16" y="26.052"/><use xlink:href="#17" y="28.223"/><use xlink:href="#18" y="30.394"/><use xlink:href="#16" y="32.565"/><use xlink:href="#19" y="34.736"/><text y="38.577" class="f">Your</text><text x="5.01" y="38.577" class="f">answer:</text><text x="13.026" y="38.577" class="f">1</text></svg><svg x="4800"><use xlink:href="#a"/><use xlink:href="#b" x="14.996" y="36.882"/><use xlink:href="#2"/><use xlink:href="#3" y="2.171"/><use xlink:href="#4" y="4.342"/><use xlink:href="#5" y="6.513"/><use xlink:href="#6" y="8.684"/><use xlink:href="#7" y="10.855"/><use xlink:href="#8" y="13.026"/><use xlink:href="#11" y="15.197"/><use xlink:href="#12" y="17.368"/><use xlink:href="#13" y="19.539"/><use xlink:href="#14" y="21.71"/><use xlink:href="#15" y="23.881"/><use xlink:href="#16" y="26.052"/><use xlink:href="#17" y="28.223"/><use xlink:href="#18" y="30.394"/><use xlink:href="#16" y="32.565"/><use xlink:href="#19" y="34.736"/><use xlink:href="#20" y="36.907"/></svg><svg x="4920"><use xlink:href="#a"/><use xlink:href="#b" x="-.004" y="39.053"/><use xlink:href="#2"/><use xlink:href="#3" y="2.171"/><use xlink:href="#4" y="4.342"/><use xlink:href="#5" y="6.513"/><use xlink:href="#6" y="8.684"/><use xlink:href="#7" y="10.855"/><use xlink:href="#8" y="13.026"/><use xlink:href="#11" y="15.197"/><use xlink:href="#12" y="17.368"/><use xlink:href="#13" y="19.539"/><use xlink:href="#14" y="21.71"/><use xlink:href="#15" y="23.881"/><use xlink:href="#16" y="26.052"/><use xlink:href="#17" y="28.223"/><use xlink:href="#18" y="30.394"/><use xlink:href="#16" y="32.565"/><use xlink:href="#19" y="34.736"/><use xlink:href="#20" y="36.907"/></svg><svg x="5040"><use xlink:href="#a"/><use xlink:href="#b" x="-.004" y="41.224"/><use xlink:href="#2"/><use xlink:href="#3" y="2.171"/><use xlink:href="#4" y="4.342"/><use xlink:href="#5" y="6.513"/><use xlink:href="#6" y="8.684"/><use xlink:href="#7" y="10.855"/><use xlink:href="#8" y="13.026"/><use xlink:href="#11" y="15.197"/><use xlink:href="#12" y="17.368"/><use xlink:href="#13" y="19.539"/><use xlink:href="#14" y="21.71"/><use xlink:href="#15" y="23.881"/><use xlink:href="#16" y="26.052"/><use xlink:href="#17" y="28.223"/><use xlink:href="#18" y="30.394"/><use xlink:href="#16" y="32.565"/><use xlink:href="#19" y="34.736"/><use xlink:href="#20" y="36.907"/><use xlink:href="#16" y="39.078"/></svg><svg x="5160"><use xlink:href="#a"/><use xlink:href="#b" x="-.004" y="43.395"/><use xlink:href="#2"/><use xlink:href="#3" y="2.171"/><use xlink:href="#4" y="4.342"/><use xlink:href="#5" y="6.513"/><use xlink:href="#6" y="8.684"/><use xlink:href="#7" y="10.855"/><use xlink:href="#8" y="13.026"/><use xlink:href="#11" y="15.197"/><use xlink:href="#12" y="17.368"/><use xlink:href="#13" y="19.539"/><use xlink:href="#14" y="21.71"/><use xlink:href="#15" y="23.881"/><use xlink:href="#16" y="26.052"/><use xlink:href="#17" y="28.223"/><use xlink:href="#18" y="30.394"/><use xlink:href="#16" y="32.565"/><use xlink:href="#19" y="34.736"/><use xlink:href="#20" y="36.907"/><use xlink:href="#16" y="39.078"/><use xlink:href="#21" y="41.249"/></svg><svg x="5280"><use xlink:href="#a"/><use xlink:href="#b" x="13.996" y="43.395"/><use xlink:href="#2"/><use xlink:href="#3" y="2.171"/><use xlink:href="#4" y="4.342"/><use xlink:href="#5" y="6.513"/><use xlink:href="#6" y="8.684"/><use xlink:href="#7" y="10.855"/><use xlink:href="#8" y="13.026"/><use xlink:href="#11" y="15.197"/><use xlink:href="#12" y="17.368"/><use xlink:href="#13" y="19.539"/><use xlink:href="#14" y="21.71"/><use xlink:href="#15" y="23.881"/><use xlink:href="#16" y="26.052"/><use xlink:href="#17" y="28.223"/><use xlink:href="#18" y="30.394"/><use xlink:href="#16" y="32.565"/><use xlink:href="#19" y="34.736"/><use xlink:href="#20" y="36.907"/><use xlink:href="#16" y="39.078"/><use xlink:href="#21" y="41.249"/><use xlink:href="#1" y="43.42"/></svg><svg x="5400"><use xlink:href="#a"/><use xlink:href="#b" x="-.004" y="45.566"/><use xlink:href="#2"/><use xlink:href="#3" y="2.171"/><use xlink:href="#4" y="4.342"/><use xlink:href="#5" y="6.513"/><use xlink:href="#6" y="8.684"/><use xlink:href="#7" y="10.855"/><use xlink:href="#8" y="13.026"/><use xlink:href="#11" y="15.197"/><use xlink:href="#12" y="17.368"/><use xlink:href="#13" y="19.539"/><use xlink:href="#14" y="21.71"/><use xlink:href="#15" y="23.881"/><use xlink:href="#16" y="26.052"/><use xlink:href="#17" y="28.223"/><use xlink:href="#18" y="30.394"/><use xlink:href="#16" y="32.565"/><use xlink:href="#19" y="34.736"/><use xlink:href="#20" y="36.907"/><use xlink:href="#16" y="39.078"/><use xlink:href="#21" y="41.249"/><text y="45.09" class="f">root@Artem:~#</text><text x="14.028" y="45.09" class="f">exit</text></svg></svg></g></g></svg></svg>