<svg xmlns="http://www.w3.org/2000/svg" xmlns:xlink="http://www.w3.org/1999/xlink" width="1240" height="211.97"><rect width="1240" height="211.97" rx="5" ry="5" class="a"/><svg y="0%" x="0%"><circle cx="20" cy="20" r="6" fill="#ff5f58"/><circle cx="40" cy="20" r="6" fill="#ffbd2e"/><circle cx="60" cy="20" r="6" fill="#18c132"/></svg><svg height="151.97" viewBox="0 0 120 15.197" width="1200" x="15" xmlns="http://www.w3.org/2000/svg" xmlns:xlink="http://www.w3.org/1999/xlink" y="50"><style>@keyframes i{0%{transform:translateX(0)}4.5%{transform:translateX(-120px)}16.6%{transform:translateX(-240px)}19.3%{transform:translateX(-360px)}26.6%{transform:translateX(-480px)}32.2%{transform:translateX(-600px)}33.9%{transform:translateX(-720px)}41%{transform:translateX(-840px)}42.7%{transform:translateX(-960px)}46.4%{transform:translateX(-1080px)}51.7%{transform:translateX(-1200px)}77.7%{transform:translateX(-1440px)}to{transform:translateX(-1560px)}}.a{fill:#282d35}.f{fill:#b9c0cb;white-space:pre}</style><g font-family="Monaco,Consolas,Menlo,'Bitstream Vera Sans Mono','Powerline Symbols',monospace" font-size="1.67"><defs><symbol id="1"><text y="1.67" class="f">root@Artem:~#</text><text x="14.028" y="1.67" class="f">cd</text></symbol><symbol id="2"><text y="1.67" class="f">root@Artem:~#</text><text x="14.028" y="1.67" class="f">cd</text><text x="17.034" y="1.67" class="f">backup</text></symbol><symbol id="a"><path fill="transparent" d="M0 0h120v8H0z"/></symbol><symbol id="b"><path fill="#6f7683" d="M0 0h1.102v2.171H0z"/></symbol></defs><path class="a" d="M0 0h120v15.197H0z"/><g style="animation-duration:6.39342s;animation-iteration-count:infinite;animation-name:i;animation-timing-function:steps(1,end)"><svg width="1680"><svg><use xlink:href="#a"/><use xlink:href="#b" x="-.004"/></svg><svg x="120"><use xlink:href="#a"/><use xlink:href="#b" x="13.996"/><text y="1.67" class="f">root@Artem:~#</text></svg><svg x="240"><use xlink:href="#a"/><use xlink:href="#b" x="14.996"/><text y="1.67" class="f">root@Artem:~#</text><text x="14.028" y="1.67" class="f">c</text></svg><svg x="360"><use xlink:href="#a"/><use xlink:href="#b" x="15.996"/><use xlink:href="#1"/></svg><svg x="480"><use xlink:href="#a"/><use xlink:href="#b" x="16.996"/><use xlink:href="#1"/></svg><svg x="600"><use xlink:href="#a"/><use xlink:href="#b" x="17.996"/><text y="1.67" class="f">root@Artem:~#</text><text x="14.028" y="1.67" class="f">cd</text><text x="17.034" y="1.67" class="f">b</text></svg><svg x="720"><use xlink:href="#a"/><use xlink:href="#b" x="18.996"/><text y="1.67" class="f">root@Artem:~#</text><text x="14.028" y="1.67" class="f">cd</text><text x="17.034" y="1.67" class="f">ba</text></svg><svg x="840"><use xlink:href="#a"/><use xlink:href="#b" x="19.996"/><text y="1.67" class="f">root@Artem:~#</text><text x="14.028" y="1.67" class="f">cd</text><text x="17.034" y="1.67" class="f">bac</text></svg><svg x="960"><use xlink:href="#a"/><use xlink:href="#b" x="20.996"/><text y="1.67" class="f">root@Artem:~#</text><text x="14.028" y="1.67" class="f">cd</text><text x="17.034" y="1.67" class="f">back</text></svg><svg x="1080"><use xlink:href="#a"/><use xlink:href="#b" x="21.996"/><text y="1.67" class="f">root@Artem:~#</text><text x="14.028" y="1.67" class="f">cd</text><text x="17.034" y="1.67" class="f">backu</text></svg><svg x="1200"><use xlink:href="#a"/><use xlink:href="#b" x="22.996"/><use xlink:href="#2"/></svg><svg x="1320"><use xlink:href="#a"/><use xlink:href="#b" x="-.004" y="2.146"/><use xlink:href="#2"/></svg><svg x="1440"><use xlink:href="#a"/><use xlink:href="#b" x="20.996" y="2.146"/><use xlink:href="#2"/><text y="3.841" class="f">root@Artem:~/backup#</text></svg><svg x="1560"><use xlink:href="#a"/><use xlink:href="#b" x="-.004" y="4.317"/><use xlink:href="#2"/><text y="3.841" class="f">root@Artem:~/backup#</text><text x="21.042" y="3.841" class="f">exit</text></svg></svg></g></g></svg></svg>