<svg xmlns="http://www.w3.org/2000/svg" xmlns:xlink="http://www.w3.org/1999/xlink" width="1240" height="168.55"><rect width="1240" height="168.55" rx="5" ry="5" class="a"/><svg y="0%" x="0%"><circle cx="20" cy="20" r="6" fill="#ff5f58"/><circle cx="40" cy="20" r="6" fill="#ffbd2e"/><circle cx="60" cy="20" r="6" fill="#18c132"/></svg><svg height="108.55" viewBox="0 0 120 10.855" width="1200" x="15" xmlns="http://www.w3.org/2000/svg" xmlns:xlink="http://www.w3.org/1999/xlink" y="50"><style>@keyframes i{0%{transform:translateX(0)}2.4%{transform:translateX(-120px)}13.9%{transform:translateX(-240px)}18%{transform:translateX(-360px)}21.9%{transform:translateX(-480px)}29.3%{transform:translateX(-600px)}33.4%{transform:translateX(-720px)}35.4%{transform:translateX(-840px)}39.2%{transform:translateX(-960px)}42.5%{transform:translateX(-1080px)}51.6%{transform:translateX(-1200px)}55.3%{transform:translateX(-1320px)}57.6%{transform:translateX(-1440px)}61.6%{transform:translateX(-1560px)}63.7%{transform:translateX(-1680px)}67.3%{transform:translateX(-1800px)}76.8%{transform:translateX(-2040px)}to{transform:translateX(-2160px)}}.a{fill:#282d35}.f{fill:#b9c0cb;white-space:pre}</style><g font-family="Monaco,Consolas,Menlo,'Bitstream Vera Sans Mono','Powerline Symbols',monospace" font-size="1.67"><defs><symbol id="1"><text y="1.67" class="f">root@Artem:~#</text><text x="14.028" y="1.67" class="f">cd</text></symbol><symbol id="2"><text y="1.67" class="f">root@Artem:~#</text><text x="14.028" y="1.67" class="f">cd</text><text x="17.034" y="1.67" class="f">brain-games</text></symbol><symbol id="a"><path fill="transparent" d="M0 0h120v6H0z"/></symbol><symbol id="b"><path fill="#6f7683" d="M0 0h1.102v2.171H0z"/></symbol></defs><path class="a" d="M0 0h120v10.855H0z"/><g style="animation-duration:6.048124s;animation-iteration-count:infinite;animation-name:i;animation-timing-function:steps(1,end)"><svg width="2280"><svg><use xlink:href="#a"/><use xlink:href="#b" x="-.004"/></svg><svg x="120"><use xlink:href="#a"/><use xlink:href="#b" x="13.996"/><text y="1.67" class="f">root@Artem:~#</text></svg><svg x="240"><use xlink:href="#a"/><use xlink:href="#b" x="14.996"/><text y="1.67" class="f">root@Artem:~#</text><text x="14.028" y="1.67" class="f">c</text></svg><svg x="360"><use xlink:href="#a"/><use xlink:href="#b" x="15.996"/><use xlink:href="#1"/></svg><svg x="480"><use xlink:href="#a"/><use xlink:href="#b" x="16.996"/><use xlink:href="#1"/></svg><svg x="600"><use xlink:href="#a"/><use xlink:href="#b" x="17.996"/><text y="1.67" class="f">root@Artem:~#</text><text x="14.028" y="1.67" class="f">cd</text><text x="17.034" y="1.67" class="f">b</text></svg><svg x="720"><use xlink:href="#a"/><use xlink:href="#b" x="18.996"/><text y="1.67" class="f">root@Artem:~#</text><text x="14.028" y="1.67" class="f">cd</text><text x="17.034" y="1.67" class="f">br</text></svg><svg x="840"><use xlink:href="#a"/><use xlink:href="#b" x="19.996"/><text y="1.67" class="f">root@Artem:~#</text><text x="14.028" y="1.67" class="f">cd</text><text x="17.034" y="1.67" class="f">bra</text></svg><svg x="960"><use xlink:href="#a"/><use xlink:href="#b" x="20.996"/><text y="1.67" class="f">root@Artem:~#</text><text x="14.028" y="1.67" class="f">cd</text><text x="17.034" y="1.67" class="f">brai</text></svg><svg x="1080"><use xlink:href="#a"/><use xlink:href="#b" x="21.996"/><text y="1.67" class="f">root@Artem:~#</text><text x="14.028" y="1.67" class="f">cd</text><text x="17.034" y="1.67" class="f">brain</text></svg><svg x="1200"><use xlink:href="#a"/><use xlink:href="#b" x="22.996"/><text y="1.67" class="f">root@Artem:~#</text><text x="14.028" y="1.67" class="f">cd</text><text x="17.034" y="1.67" class="f">brain-</text></svg><svg x="1320"><use xlink:href="#a"/><use xlink:href="#b" x="23.996"/><text y="1.67" class="f">root@Artem:~#</text><text x="14.028" y="1.67" class="f">cd</text><text x="17.034" y="1.67" class="f">brain-g</text></svg><svg x="1440"><use xlink:href="#a"/><use xlink:href="#b" x="24.996"/><text y="1.67" class="f">root@Artem:~#</text><text x="14.028" y="1.67" class="f">cd</text><text x="17.034" y="1.67" class="f">brain-ga</text></svg><svg x="1560"><use xlink:href="#a"/><use xlink:href="#b" x="25.996"/><text y="1.67" class="f">root@Artem:~#</text><text x="14.028" y="1.67" class="f">cd</text><text x="17.034" y="1.67" class="f">brain-gam</text></svg><svg x="1680"><use xlink:href="#a"/><use xlink:href="#b" x="26.996"/><text y="1.67" class="f">root@Artem:~#</text><text x="14.028" y="1.67" class="f">cd</text><text x="17.034" y="1.67" class="f">brain-game</text></svg><svg x="1800"><use xlink:href="#a"/><use xlink:href="#b" x="27.996"/><use xlink:href="#2"/></svg><svg x="1920"><use xlink:href="#a"/><use xlink:href="#b" x="-.004" y="2.146"/><use xlink:href="#2"/></svg><svg x="2040"><use xlink:href="#a"/><use xlink:href="#b" x="25.996" y="2.146"/><use xlink:href="#2"/><text y="3.841" class="f">root@Artem:~/brain-games#</text></svg><svg x="2160"><use xlink:href="#a"/><use xlink:href="#b" x="-.004" y="4.317"/><use xlink:href="#2"/><text y="3.841" class="f">root@Artem:~/brain-games#</text><text x="26.052" y="3.841" class="f">exit</text></svg></svg></g></g></svg></svg>