<svg xmlns="http://www.w3.org/2000/svg" xmlns:xlink="http://www.w3.org/1999/xlink" width="1240" height="168.55"><rect width="1240" height="168.55" rx="5" ry="5" class="a"/><svg y="0%" x="0%"><circle cx="20" cy="20" r="6" fill="#ff5f58"/><circle cx="40" cy="20" r="6" fill="#ffbd2e"/><circle cx="60" cy="20" r="6" fill="#18c132"/></svg><svg height="108.55" viewBox="0 0 120 10.855" width="1200" x="15" xmlns="http://www.w3.org/2000/svg" xmlns:xlink="http://www.w3.org/1999/xlink" y="50"><style>@keyframes n{0%{transform:translateX(0)}1.1%{transform:translateX(-120px)}10.4%{transform:translateX(-240px)}18.4%{transform:translateX(-360px)}21.1%{transform:translateX(-480px)}24.2%{transform:translateX(-600px)}29.4%{transform:translateX(-720px)}31.9%{transform:translateX(-840px)}35.4%{transform:translateX(-960px)}37.6%{transform:translateX(-1080px)}45.1%{transform:translateX(-1200px)}59.5%{transform:translateX(-1320px)}60.1%{transform:translateX(-1440px)}60.7%{transform:translateX(-1560px)}61.5%{transform:translateX(-1680px)}62.4%{transform:translateX(-1800px)}63.1%{transform:translateX(-1920px)}64.4%{transform:translateX(-2040px)}65.1%{transform:translateX(-2160px)}67.6%{transform:translateX(-2280px)}72.5%{transform:translateX(-2400px)}73.2%{transform:translateX(-2520px)}73.8%{transform:translateX(-2640px)}74.4%{transform:translateX(-2760px)}75%{transform:translateX(-2880px)}75.6%{transform:translateX(-3000px)}77%{transform:translateX(-3120px)}78.4%{transform:translateX(-3240px)}79%{transform:translateX(-3360px)}80.5%{transform:translateX(-3480px)}81.1%{transform:translateX(-3600px)}81.7%{transform:translateX(-3720px)}82.3%{transform:translateX(-3840px)}82.9%{transform:translateX(-3960px)}83.5%{transform:translateX(-4080px)}84.1%{transform:translateX(-4200px)}84.7%{transform:translateX(-4320px)}85.3%{transform:translateX(-4440px)}86%{transform:translateX(-4560px)}86.6%{transform:translateX(-4680px)}87.2%{transform:translateX(-4800px)}87.7%{transform:translateX(-5040px)}89.5%{transform:translateX(-5400px)}89.6%{transform:translateX(-5520px)}90.1%{transform:translateX(-5640px)}90.2%{transform:translateX(-6240px)}90.4%{transform:translateX(-6360px)}to{transform:translateX(-6480px)}}.a{fill:#282d35}.f{white-space:pre}.f,.g{fill:#b9c0cb}.h,.i,.j,.k{fill:#282d35;white-space:pre}.i,.j,.k{fill:#6f7783}.j,.k{fill:#a8cc8c}.k{fill:#d290e4}</style><g font-family="Monaco,Consolas,Menlo,'Bitstream Vera Sans Mono','Powerline Symbols',monospace" font-size="1.67"><defs><symbol id="1"><text y="1.67" class="f">root@Artem:~/brain-games#</text></symbol><symbol id="2"><text y="1.67" class="f">root@Artem:~/brain-games#</text><text x="26.052" y="1.67" class="f">npm</text></symbol><symbol id="3"><text y="1.67" class="f">root@Artem:~/brain-games#</text><text x="26.052" y="1.67" class="f">npm</text><text x="30.06" y="1.67" class="f">link</text></symbol><symbol id="4"><text y="1.67" class="f">[</text><path class="g" d="M1.002 0h1v2.171h-1z"/><text x="1.002" y="1.67" class="h"></text><text x="2.004" y="1.67" class="i">.................</text><text x="19.038" y="1.67" class="f">]</text><text x="21.042" y="1.67" class="f">\</text><text x="23.046" y="1.67" class="f">preinstall:frontend-project-lvl1:</text><text x="57.114" y="1.67" class="j">info</text><text x="62.124" y="1.67" class="k">lifecycle</text><text x="72.144" y="1.67" class="f">frontend-project-lvl1@1.0.0~preinstall:</text><text x="112.224" y="1.67" class="f">fronten</text></symbol><symbol id="5"><text y="1.67" class="f">[</text><path class="g" d="M1.002 0h7v2.171h-7z"/><text x="1.002" y="1.67" class="h"></text><text x="8.016" y="1.67" class="i">...........</text><text x="19.038" y="1.67" class="f">]</text><text x="21.042" y="1.67" class="f">/</text><text x="23.046" y="1.67" class="f">postinstall:</text><path class="g" d="M36.072 0h4v2.171h-4z"/><text x="36.072" y="1.67" class="h">sill</text><text x="41.082" y="1.67" class="k">install</text><text x="49.098" y="1.67" class="f">executeActions</text></symbol><symbol id="6"><text y="1.67" class="f">[</text><path class="g" d="M1.002 0h9v2.171h-9z"/><text x="1.002" y="1.67" class="h"></text><text x="10.02" y="1.67" class="i">.........</text><text x="19.038" y="1.67" class="f">]</text><text x="21.042" y="1.67" class="f">-</text><text x="23.046" y="1.67" class="f">prepare:brain-games:</text><text x="44.088" y="1.67" class="j">info</text><text x="49.098" y="1.67" class="k">lifecycle</text><text x="59.118" y="1.67" class="f">frontend-project-lvl1@1.0.0~prepare:</text><text x="96.192" y="1.67" class="f">frontend-project-lvl1@1</text></symbol><symbol id="7"><text y="1.67" class="f">audited</text><text x="8.016" y="1.67" class="f">388</text><text x="12.024" y="1.67" class="f">packages</text><text x="21.042" y="1.67" class="f">in</text><text x="24.048" y="1.67" class="f">2.402s</text></symbol><symbol id="8"><text y="1.67" class="f">21</text><text x="3.006" y="1.67" class="f">packages</text><text x="12.024" y="1.67" class="f">are</text><text x="16.032" y="1.67" class="f">looking</text><text x="24.048" y="1.67" class="f">for</text><text x="28.056" y="1.67" class="f">funding</text></symbol><symbol id="9"><text x="2.004" y="1.67" class="f">run</text><text x="6.012" y="1.67" class="f">`npm</text><text x="11.022" y="1.67" class="f">fund`</text><text x="17.034" y="1.67" class="f">for</text><text x="21.042" y="1.67" class="f">details</text></symbol><symbol id="10"><text y="1.67" class="f">found</text><text x="6.012" y="1.67" class="j">0</text><text x="8.016" y="1.67" class="f">vulnerabilities</text></symbol><symbol id="11"><text y="1.67" class="f">/usr/bin/brain-calc</text><text x="20.04" y="1.67" class="f">-&gt;</text><text x="23.046" y="1.67" class="f">/usr/lib/node_modules/frontend-project-lvl1/bin/brain-calc.js</text></symbol><symbol id="12"><text y="1.67" class="f">/usr/bin/brain-gcd</text><text x="19.038" y="1.67" class="f">-&gt;</text><text x="22.044" y="1.67" class="f">/usr/lib/node_modules/frontend-project-lvl1/bin/brain-gcd.js</text></symbol><symbol id="13"><text y="1.67" class="f">/usr/bin/brain-progression</text><text x="27.054" y="1.67" class="f">-&gt;</text><text x="30.06" y="1.67" class="f">/usr/lib/node_modules/frontend-project-lvl1/bin/brain-progression.js</text></symbol><symbol id="14"><text y="1.67" class="f">/usr/bin/brain-even</text><text x="20.04" y="1.67" class="f">-&gt;</text><text x="23.046" y="1.67" class="f">/usr/lib/node_modules/frontend-project-lvl1/bin/brain-even.js</text></symbol><symbol id="15"><text y="1.67" class="f">/usr/bin/brain-prime</text><text x="21.042" y="1.67" class="f">-&gt;</text><text x="24.048" y="1.67" class="f">/usr/lib/node_modules/frontend-project-lvl1/bin/brain-prime.js</text></symbol><symbol id="16"><text y="1.67" class="f">/usr/lib/node_modules/frontend-project-lvl1</text><text x="44.088" y="1.67" class="f">-&gt;</text><text x="47.094" y="1.67" class="f">/root/brain-games</text></symbol><symbol id="a"><path fill="transparent" d="M0 0h120v6H0z"/></symbol><symbol id="b"><path fill="#6f7683" d="M0 0h1.102v2.171H0z"/></symbol></defs><path class="a" d="M0 0h120v10.855H0z"/><g style="animation-duration:8.471491s;animation-iteration-count:infinite;animation-name:n;animation-timing-function:steps(1,end)"><svg width="6600"><svg><use xlink:href="#a"/><use xlink:href="#b" x="-.004"/></svg><svg x="120"><use xlink:href="#a"/><use xlink:href="#b" x="25.996"/><use xlink:href="#1"/></svg><svg x="240"><use xlink:href="#a"/><use xlink:href="#b" x="26.996"/><text y="1.67" class="f">root@Artem:~/brain-games#</text><text x="26.052" y="1.67" class="f">n</text></svg><svg x="360"><use xlink:href="#a"/><use xlink:href="#b" x="27.996"/><text y="1.67" class="f">root@Artem:~/brain-games#</text><text x="26.052" y="1.67" class="f">np</text></svg><svg x="480"><use xlink:href="#a"/><use xlink:href="#b" x="28.996"/><use xlink:href="#2"/></svg><svg x="600"><use xlink:href="#a"/><use xlink:href="#b" x="29.996"/><use xlink:href="#2"/></svg><svg x="720"><use xlink:href="#a"/><use xlink:href="#b" x="30.996"/><text y="1.67" class="f">root@Artem:~/brain-games#</text><text x="26.052" y="1.67" class="f">npm</text><text x="30.06" y="1.67" class="f">l</text></svg><svg x="840"><use xlink:href="#a"/><use xlink:href="#b" x="31.996"/><text y="1.67" class="f">root@Artem:~/brain-games#</text><text x="26.052" y="1.67" class="f">npm</text><text x="30.06" y="1.67" class="f">li</text></svg><svg x="960"><use xlink:href="#a"/><use xlink:href="#b" x="32.996"/><text y="1.67" class="f">root@Artem:~/brain-games#</text><text x="26.052" y="1.67" class="f">npm</text><text x="30.06" y="1.67" class="f">lin</text></svg><svg x="1080"><use xlink:href="#a"/><use xlink:href="#b" x="33.996"/><use xlink:href="#3"/></svg><svg x="1200"><use xlink:href="#a"/><use xlink:href="#b" x="-.004" y="2.146"/><use xlink:href="#3"/></svg><svg x="1320"><use xlink:href="#a"/><use xlink:href="#3"/><text y="3.841" class="f">[</text><text x="1.002" y="3.841" class="i">..................</text><text x="19.038" y="3.841" class="f">]</text><text x="21.042" y="3.841" class="f">\</text><text x="23.046" y="3.841" class="f">rollbackFailedOptional:</text>0<text x="47.094" y="3.841" style="white-space:pre" fill="#71bef2">verb</text><text x="52.104" y="3.841" class="k">npm-session</text><text x="64.128" y="3.841" class="f">9529fa3742f1637d</text></svg><svg x="1440"><use xlink:href="#a"/><use xlink:href="#3"/><use xlink:href="#4" y="2.171"/></svg><svg x="1560"><use xlink:href="#a"/><use xlink:href="#3"/><use xlink:href="#4" y="2.171"/></svg><svg x="1680"><use xlink:href="#a"/><use xlink:href="#3"/><use xlink:href="#4" y="2.171"/></svg><svg x="1800"><use xlink:href="#a"/><use xlink:href="#3"/><use xlink:href="#4" y="2.171"/></svg><svg x="1920"><use xlink:href="#a"/><use xlink:href="#3"/><use xlink:href="#4" y="2.171"/></svg><svg x="2040"><use xlink:href="#a"/><use xlink:href="#3"/><use xlink:href="#4" y="2.171"/></svg><svg x="2160"><use xlink:href="#a"/><use xlink:href="#3"/><use xlink:href="#4" y="2.171"/></svg><svg x="2280"><use xlink:href="#a"/><use xlink:href="#3"/><text y="3.841" class="f">[</text><path class="g" d="M1.002 2.171h1v2.171h-1z"/><text x="1.002" y="3.841" class="h"></text><text x="2.004" y="3.841" class="i">.................</text><text x="19.038" y="3.841" class="f">]</text><text x="21.042" y="3.841" class="f">|</text><text x="23.046" y="3.841" class="f">loadIdealTree:loadAllDepsIntoIdealTree:</text><path class="g" d="M63.126 2.171h4v2.171h-4z"/><text x="63.126" y="3.841" class="h">sill</text><text x="68.136" y="3.841" class="k">install</text><text x="76.152" y="3.841" class="f">loadIdealTree</text></svg><svg x="2400"><use xlink:href="#a"/><use xlink:href="#3"/><text y="3.841" class="f">[</text><path class="g" d="M1.002 2.171h2v2.171h-2z"/><text x="1.002" y="3.841" class="h"></text><text x="3.006" y="3.841" class="i">................</text><text x="19.038" y="3.841" class="f">]</text><text x="21.042" y="3.841" class="f">-</text><text x="23.046" y="3.841" class="f">loadDep:readline-sync:</text><path class="g" d="M46.092 2.171h4v2.171h-4z"/><text x="46.092" y="3.841" class="h">sill</text><text x="51.102" y="3.841" class="k">install</text><text x="59.118" y="3.841" class="f">loadAllDepsIntoIdealTree</text></svg><svg x="2520"><use xlink:href="#a"/><use xlink:href="#3"/><text y="3.841" class="f">[</text><path class="g" d="M1.002 2.171h4v2.171h-4z"/><text x="1.002" y="3.841" class="h"></text><text x="5.01" y="3.841" class="i">..............</text><text x="19.038" y="3.841" class="f">]</text><text x="21.042" y="3.841" class="f">-</text><text x="23.046" y="3.841" class="f">loadDep:supports-color:</text><path class="g" d="M47.094 2.171h4v2.171h-4z"/><text x="47.094" y="3.841" class="h">sill</text><text x="52.104" y="3.841" class="k">install</text><text x="60.12" y="3.841" class="f">loadAllDepsIntoIdealTree</text></svg><svg x="2640"><use xlink:href="#a"/><use xlink:href="#3"/><text y="3.841" class="f">[</text><path class="g" d="M1.002 2.171h4v2.171h-4z"/><text x="1.002" y="3.841" class="h"></text><text x="5.01" y="3.841" class="i">..............</text><text x="19.038" y="3.841" class="f">]</text><text x="21.042" y="3.841" class="f">-</text><text x="23.046" y="3.841" class="f">loadDep:eslint-visitor-keys:</text><path class="g" d="M52.104 2.171h4v2.171h-4z"/><text x="52.104" y="3.841" class="h">sill</text><text x="57.114" y="3.841" class="k">install</text><text x="65.13" y="3.841" class="f">loadAllDepsIntoIdealTree</text></svg><svg x="2760"><use xlink:href="#a"/><use xlink:href="#3"/><text y="3.841" class="f">[</text><path class="g" d="M1.002 2.171h4v2.171h-4z"/><text x="1.002" y="3.841" class="h"></text><text x="5.01" y="3.841" class="i">..............</text><text x="19.038" y="3.841" class="f">]</text><text x="21.042" y="3.841" class="f">-</text><text x="23.046" y="3.841" class="f">loadDep:through:</text><path class="g" d="M40.08 2.171h4v2.171h-4z"/><text x="40.08" y="3.841" class="h">sill</text><text x="45.09" y="3.841" class="k">install</text><text x="53.106" y="3.841" class="f">loadAllDepsIntoIdealTree</text></svg><svg x="2880"><use xlink:href="#a"/><use xlink:href="#3"/><text y="3.841" class="f">[</text><path class="g" d="M1.002 2.171h5v2.171h-5z"/><text x="1.002" y="3.841" class="h"></text><text x="6.012" y="3.841" class="i">.............</text><text x="19.038" y="3.841" class="f">]</text><text x="21.042" y="3.841" class="f">-</text><text x="23.046" y="3.841" class="f">loadDep:has:</text><path class="g" d="M36.072 2.171h4v2.171h-4z"/><text x="36.072" y="3.841" class="h">sill</text><text x="41.082" y="3.841" class="k">install</text><text x="49.098" y="3.841" class="f">loadAllDepsIntoIdealTree</text></svg><svg x="3000"><use xlink:href="#a"/><use xlink:href="#3"/><text y="3.841" class="f">[</text><path class="g" d="M1.002 2.171h5v2.171h-5z"/><text x="1.002" y="3.841" class="h"></text><text x="6.012" y="3.841" class="i">.............</text><text x="19.038" y="3.841" class="f">]</text><text x="21.042" y="3.841" class="f">-</text><text x="23.046" y="3.841" class="f">loadDep:read-pkg:</text><path class="g" d="M41.082 2.171h4v2.171h-4z"/><text x="41.082" y="3.841" class="h">sill</text><text x="46.092" y="3.841" class="k">install</text><text x="54.108" y="3.841" class="f">loadAllDepsIntoIdealTree</text></svg><svg x="3120"><use xlink:href="#a"/><use xlink:href="#3"/><text y="3.841" class="f">[</text><path class="g" d="M1.002 2.171h7v2.171h-7z"/><text x="1.002" y="3.841" class="h"></text><text x="8.016" y="3.841" class="i">...........</text><text x="19.038" y="3.841" class="f">]</text><text x="21.042" y="3.841" class="f">\</text><text x="23.046" y="3.841" class="f">diffTrees:</text><path class="g" d="M34.068 2.171h4v2.171h-4z"/><text x="34.068" y="3.841" class="h">sill</text><text x="39.078" y="3.841" class="k">install</text><text x="47.094" y="3.841" class="f">generateActionsToTake</text></svg><svg x="3240"><use xlink:href="#a"/><use xlink:href="#3"/><use xlink:href="#5" y="2.171"/></svg><svg x="3360"><use xlink:href="#a"/><use xlink:href="#3"/><use xlink:href="#5" y="2.171"/></svg><svg x="3480"><use xlink:href="#a"/><use xlink:href="#3"/><text y="3.841" class="f">[</text><path class="g" d="M1.002 2.171h9v2.171h-9z"/><text x="1.002" y="3.841" class="h"></text><text x="10.02" y="3.841" class="i">.........</text><text x="19.038" y="3.841" class="f">]</text><text x="21.042" y="3.841" class="f">\</text><text x="23.046" y="3.841" class="f">prepare:brain-games:</text><text x="44.088" y="3.841" class="j">info</text><text x="49.098" y="3.841" class="k">lifecycle</text><text x="59.118" y="3.841" class="f">frontend-project-lvl1@1.0.0~prepare:</text><text x="96.192" y="3.841" class="f">frontend-project-lvl1@1</text></svg><svg x="3600"><use xlink:href="#a"/><use xlink:href="#3"/><text y="3.841" class="f">[</text><path class="g" d="M1.002 2.171h9v2.171h-9z"/><text x="1.002" y="3.841" class="h"></text><text x="10.02" y="3.841" class="i">.........</text><text x="19.038" y="3.841" class="f">]</text><text x="21.042" y="3.841" class="f">/</text><text x="23.046" y="3.841" class="f">prepare:brain-games:</text><text x="44.088" y="3.841" class="j">info</text><text x="49.098" y="3.841" class="k">lifecycle</text><text x="59.118" y="3.841" class="f">frontend-project-lvl1@1.0.0~prepare:</text><text x="96.192" y="3.841" class="f">frontend-project-lvl1@1</text></svg><svg x="3720"><use xlink:href="#a"/><use xlink:href="#3"/><use xlink:href="#6" y="2.171"/></svg><svg x="3840"><use xlink:href="#a"/><use xlink:href="#3"/><use xlink:href="#6" y="2.171"/></svg><svg x="3960"><use xlink:href="#a"/><use xlink:href="#3"/><use xlink:href="#6" y="2.171"/></svg><svg x="4080"><use xlink:href="#a"/><use xlink:href="#3"/><use xlink:href="#6" y="2.171"/></svg><svg x="4200"><use xlink:href="#a"/><use xlink:href="#3"/><use xlink:href="#6" y="2.171"/></svg><svg x="4320"><use xlink:href="#a"/><use xlink:href="#3"/><use xlink:href="#6" y="2.171"/></svg><svg x="4440"><use xlink:href="#a"/><use xlink:href="#3"/><use xlink:href="#6" y="2.171"/></svg><svg x="4560"><use xlink:href="#a"/><use xlink:href="#3"/><use xlink:href="#6" y="2.171"/></svg><svg x="4680"><use xlink:href="#a"/><use xlink:href="#3"/><use xlink:href="#6" y="2.171"/></svg><svg x="4800"><use xlink:href="#a"/><use xlink:href="#3"/><use xlink:href="#6" y="2.171"/></svg><svg x="4920"><use xlink:href="#a"/><use xlink:href="#b" x="-.004" y="2.146"/><use xlink:href="#3"/></svg><svg x="5040"><use xlink:href="#a"/><use xlink:href="#b" x="-.004" y="4.317"/><use xlink:href="#3"/><use xlink:href="#7" y="2.171"/></svg><svg x="5160"><use xlink:href="#a"/><use xlink:href="#b" x="-.004" y="10.83"/><use xlink:href="#7"/><use xlink:href="#8" y="4.342"/><use xlink:href="#9" y="6.513"/></svg><svg x="5280"><use xlink:href="#a"/><use xlink:href="#b" x="-.004" y="10.83"/><use xlink:href="#8"/><use xlink:href="#9" y="2.171"/><use xlink:href="#10" y="6.513"/></svg><svg x="5400"><use xlink:href="#a"/><use xlink:href="#8"/><use xlink:href="#9" y="2.171"/><use xlink:href="#10" y="6.513"/></svg><svg x="5520"><use xlink:href="#a"/><use xlink:href="#8"/><use xlink:href="#9" y="2.171"/><use xlink:href="#10" y="6.513"/><text y="12.525" class="f">[</text><path class="g" d="M1.002 10.855h9v2.171h-9z"/><text x="1.002" y="12.525" class="h"></text><text x="10.02" y="12.525" class="i">.........</text><text x="19.038" y="12.525" class="f">]</text><text x="21.042" y="12.525" class="f">/</text><text x="23.046" y="12.525" class="f">prepare:brain-games:</text>0<text x="44.088" y="12.525" class="j">timing</text><text x="51.102" y="12.525" class="k">audit</text><text x="57.114" y="12.525" class="k">body</text><text x="62.124" y="12.525" class="f">Completed</text><text x="72.144" y="12.525" class="f">in</text><text x="75.15" y="12.525" class="f">1ms</text></svg><svg x="5640"><use xlink:href="#a"/><use xlink:href="#8"/><use xlink:href="#9" y="2.171"/><use xlink:href="#10" y="6.513"/><text y="12.525" class="f">[</text><path class="g" d="M1.002 10.855h9v2.171h-9z"/><text x="1.002" y="12.525" class="h"></text><text x="10.02" y="12.525" class="i">.........</text><text x="19.038" y="12.525" class="f">]</text><text x="21.042" y="12.525" class="f">-</text><text x="23.046" y="12.525" class="f">prepare:brain-games:</text>0<text x="44.088" y="12.525" class="j">timing</text><text x="51.102" y="12.525" class="k">audit</text><text x="57.114" y="12.525" class="k">body</text><text x="62.124" y="12.525" class="f">Completed</text><text x="72.144" y="12.525" class="f">in</text><text x="75.15" y="12.525" class="f">1ms</text></svg><svg x="5760"><use xlink:href="#a"/><use xlink:href="#b" x="-.004" y="10.83"/><use xlink:href="#8"/><use xlink:href="#9" y="2.171"/><use xlink:href="#10" y="6.513"/></svg><svg x="5880"><use xlink:href="#a"/><use xlink:href="#b" x="-.004" y="10.83"/><use xlink:href="#9"/><use xlink:href="#10" y="4.342"/><use xlink:href="#11" y="8.684"/></svg><svg x="6000"><use xlink:href="#a"/><use xlink:href="#b" x="-.004" y="10.83"/><use xlink:href="#10" y="2.171"/><use xlink:href="#11" y="6.513"/><use xlink:href="#12" y="8.684"/></svg><svg x="6120"><use xlink:href="#a"/><use xlink:href="#b" x="-.004" y="10.83"/><use xlink:href="#11" y="2.171"/><use xlink:href="#12" y="4.342"/><use xlink:href="#13" y="6.513"/><use xlink:href="#14" y="8.684"/></svg><svg x="6240"><use xlink:href="#a"/><use xlink:href="#b" x="-.004" y="10.83"/><use xlink:href="#12"/><use xlink:href="#13" y="2.171"/><use xlink:href="#14" y="4.342"/><use xlink:href="#15" y="6.513"/><use xlink:href="#16" y="8.684"/></svg><svg x="6360"><use xlink:href="#a"/><use xlink:href="#b" x="25.996" y="10.83"/><use xlink:href="#12"/><use xlink:href="#13" y="2.171"/><use xlink:href="#14" y="4.342"/><use xlink:href="#15" y="6.513"/><use xlink:href="#16" y="8.684"/><use xlink:href="#1" y="10.855"/></svg><svg x="6480"><use xlink:href="#a"/><use xlink:href="#b" x="-.004" y="10.83"/><use xlink:href="#13"/><use xlink:href="#14" y="2.171"/><use xlink:href="#15" y="4.342"/><use xlink:href="#16" y="6.513"/><text y="10.354" class="f">root@Artem:~/brain-games#</text><text x="26.052" y="10.354" class="f">exit</text></svg></svg></g></g></svg></svg>