<svg xmlns="http://www.w3.org/2000/svg" xmlns:xlink="http://www.w3.org/1999/xlink" width="1240" height="168.55"><rect width="1240" height="168.55" rx="5" ry="5" class="a"/><svg y="0%" x="0%"><circle cx="20" cy="20" r="6" fill="#ff5f58"/><circle cx="40" cy="20" r="6" fill="#ffbd2e"/><circle cx="60" cy="20" r="6" fill="#18c132"/></svg><svg height="108.55" viewBox="0 0 120 10.855" width="1200" x="15" xmlns="http://www.w3.org/2000/svg" xmlns:xlink="http://www.w3.org/1999/xlink" y="50"><style>@keyframes i{0%{transform:translateX(0)}6.9%{transform:translateX(-120px)}11.2%{transform:translateX(-240px)}13.4%{transform:translateX(-360px)}14.6%{transform:translateX(-480px)}16.7%{transform:translateX(-600px)}19.3%{transform:translateX(-720px)}20.5%{transform:translateX(-840px)}21.9%{transform:translateX(-960px)}23.8%{transform:translateX(-1080px)}25.1%{transform:translateX(-1200px)}29.4%{transform:translateX(-1320px)}34.5%{transform:translateX(-1440px)}45.6%{transform:translateX(-1560px)}45.7%{transform:translateX(-1680px)}84.2%{transform:translateX(-1800px)}84.4%{transform:translateX(-2520px)}84.7%{transform:translateX(-3120px)}84.8%{transform:translateX(-3360px)}85.2%{transform:translateX(-3600px)}85.4%{transform:translateX(-6120px)}85.5%{transform:translateX(-6840px)}85.6%{transform:translateX(-7320px)}88.9%{transform:translateX(-7440px)}to{transform:translateX(-7560px)}}.a{fill:#282d35}.f{fill:#b9c0cb;white-space:pre}</style><g font-family="Monaco,Consolas,Menlo,'Bitstream Vera Sans Mono','Powerline Symbols',monospace" font-size="1.67"><defs><symbol id="1"><text y="1.67" class="f">root@Artem:~#</text></symbol><symbol id="2"><text y="1.67" class="f">root@Artem:~#</text><text x="14.028" y="1.67" class="f">git</text></symbol><symbol id="3"><text y="1.67" class="f">root@Artem:~#</text><text x="14.028" y="1.67" class="f">git</text><text x="18.036" y="1.67" class="f">clone</text></symbol><symbol id="4"><text y="1.67" class="f">root@Artem:~#</text><text x="14.028" y="1.67" class="f">git</text><text x="18.036" y="1.67" class="f">clone</text><text x="24.048" y="1.67" class="f">https://github.com/ArtemChizhevskikh/frontend-project-lvl1.git</text><text x="87.174" y="1.67" class="f">brain-games</text></symbol><symbol id="5"><text y="1.67" class="f">Cloning</text><text x="8.016" y="1.67" class="f">into</text><text x="13.026" y="1.67" class="f">&apos;brain-games&apos;...</text></symbol><symbol id="6"><text y="1.67" class="f">remote:</text><text x="8.016" y="1.67" class="f">Enumerating</text><text x="20.04" y="1.67" class="f">objects:</text><text x="29.058" y="1.67" class="f">296,</text><text x="34.068" y="1.67" class="f">done.</text></symbol><symbol id="7"><text y="1.67" class="f">remote:</text><text x="8.016" y="1.67" class="f">Counting</text><text x="17.034" y="1.67" class="f">objects:</text><text x="26.052" y="1.67" class="f">100%</text><text x="31.062" y="1.67" class="f">(296/296),</text><text x="42.084" y="1.67" class="f">done.</text></symbol><symbol id="8"><text y="1.67" class="f">remote:</text><text x="8.016" y="1.67" class="f">Compressing</text><text x="20.04" y="1.67" class="f">objects:</text><text x="29.058" y="1.67" class="f">100%</text><text x="34.068" y="1.67" class="f">(201/201),</text><text x="45.09" y="1.67" class="f">done.</text></symbol><symbol id="9"><text y="1.67" class="f">remote:</text><text x="8.016" y="1.67" class="f">Total</text><text x="14.028" y="1.67" class="f">296</text><text x="18.036" y="1.67" class="f">(delta</text><text x="25.05" y="1.67" class="f">142),</text><text x="31.062" y="1.67" class="f">reused</text><text x="38.076" y="1.67" class="f">203</text><text x="42.084" y="1.67" class="f">(delta</text><text x="49.098" y="1.67" class="f">78),</text><text x="54.108" y="1.67" class="f">pack-reused</text><text x="66.132" y="1.67" class="f">0</text></symbol><symbol id="10"><text y="1.67" class="f">Receiving</text><text x="10.02" y="1.67" class="f">objects:</text><text x="19.038" y="1.67" class="f">100%</text><text x="24.048" y="1.67" class="f">(296/296),</text><text x="35.07" y="1.67" class="f">57.49</text><text x="41.082" y="1.67" class="f">KiB</text><text x="45.09" y="1.67" class="f">|</text><text x="47.094" y="1.67" class="f">1.22</text><text x="52.104" y="1.67" class="f">MiB/s,</text><text x="59.118" y="1.67" class="f">done.</text></symbol><symbol id="11"><text y="1.67" class="f">Resolving</text><text x="10.02" y="1.67" class="f">deltas:</text><text x="18.036" y="1.67" class="f">100%</text><text x="23.046" y="1.67" class="f">(142/142),</text><text x="34.068" y="1.67" class="f">done.</text></symbol><symbol id="a"><path fill="transparent" d="M0 0h120v6H0z"/></symbol><symbol id="b"><path fill="#6f7683" d="M0 0h1.102v2.171H0z"/></symbol></defs><path class="a" d="M0 0h120v10.855H0z"/><g style="animation-duration:13.463217s;animation-iteration-count:infinite;animation-name:i;animation-timing-function:steps(1,end)"><svg width="7680"><svg><use xlink:href="#a"/><use xlink:href="#b" x="-.004"/></svg><svg x="120"><use xlink:href="#a"/><use xlink:href="#b" x="13.996"/><use xlink:href="#1"/></svg><svg x="240"><use xlink:href="#a"/><use xlink:href="#b" x="14.996"/><text y="1.67" class="f">root@Artem:~#</text><text x="14.028" y="1.67" class="f">g</text></svg><svg x="360"><use xlink:href="#a"/><use xlink:href="#b" x="15.996"/><text y="1.67" class="f">root@Artem:~#</text><text x="14.028" y="1.67" class="f">gi</text></svg><svg x="480"><use xlink:href="#a"/><use xlink:href="#b" x="16.996"/><use xlink:href="#2"/></svg><svg x="600"><use xlink:href="#a"/><use xlink:href="#b" x="17.996"/><use xlink:href="#2"/></svg><svg x="720"><use xlink:href="#a"/><use xlink:href="#b" x="18.996"/><text y="1.67" class="f">root@Artem:~#</text><text x="14.028" y="1.67" class="f">git</text><text x="18.036" y="1.67" class="f">c</text></svg><svg x="840"><use xlink:href="#a"/><use xlink:href="#b" x="19.996"/><text y="1.67" class="f">root@Artem:~#</text><text x="14.028" y="1.67" class="f">git</text><text x="18.036" y="1.67" class="f">cl</text></svg><svg x="960"><use xlink:href="#a"/><use xlink:href="#b" x="20.996"/><text y="1.67" class="f">root@Artem:~#</text><text x="14.028" y="1.67" class="f">git</text><text x="18.036" y="1.67" class="f">clo</text></svg><svg x="1080"><use xlink:href="#a"/><use xlink:href="#b" x="21.996"/><text y="1.67" class="f">root@Artem:~#</text><text x="14.028" y="1.67" class="f">git</text><text x="18.036" y="1.67" class="f">clon</text></svg><svg x="1200"><use xlink:href="#a"/><use xlink:href="#b" x="22.996"/><use xlink:href="#3"/></svg><svg x="1320"><use xlink:href="#a"/><use xlink:href="#b" x="23.996"/><use xlink:href="#3"/></svg><svg x="1440"><use xlink:href="#a"/><use xlink:href="#b" x="97.996"/><use xlink:href="#4"/></svg><svg x="1560"><use xlink:href="#a"/><use xlink:href="#b" x="-.004" y="2.146"/><use xlink:href="#4"/></svg><svg x="1680"><use xlink:href="#a"/><use xlink:href="#b" x="-.004" y="4.317"/><use xlink:href="#4"/><use xlink:href="#5" y="2.171"/></svg><svg x="1800"><use xlink:href="#a"/><use xlink:href="#b" x="-.004" y="6.488"/><use xlink:href="#4"/><use xlink:href="#5" y="2.171"/><use xlink:href="#6" y="4.342"/><text y="8.183" class="f">remote:</text><text x="8.016" y="8.183" class="f">Counting</text><text x="17.034" y="8.183" class="f">objects:</text><text x="28.056" y="8.183" class="f">0%</text><text x="31.062" y="8.183" class="f">(1/296)</text></svg><svg x="1920"><use xlink:href="#a"/><use xlink:href="#b" x="-.004" y="6.488"/><use xlink:href="#4"/><use xlink:href="#5" y="2.171"/><use xlink:href="#6" y="4.342"/><text y="8.183" class="f">remote:</text><text x="8.016" y="8.183" class="f">Counting</text><text x="17.034" y="8.183" class="f">objects:</text><text x="28.056" y="8.183" class="f">4%</text><text x="31.062" y="8.183" class="f">(12/296)</text></svg><svg x="2040"><use xlink:href="#a"/><use xlink:href="#b" x="34.996" y="6.488"/><use xlink:href="#4"/><use xlink:href="#5" y="2.171"/><use xlink:href="#6" y="4.342"/><text y="8.183" class="f">remote:</text><text x="8.016" y="8.183" class="f">Counting</text><text x="17.034" y="8.183" class="f">objects:</text><text x="27.054" y="8.183" class="f">28%</text><text x="31.062" y="8.183" class="f">(83/296)</text></svg><svg x="2160"><use xlink:href="#a"/><use xlink:href="#b" x="8.996" y="6.488"/><use xlink:href="#4"/><use xlink:href="#5" y="2.171"/><use xlink:href="#6" y="4.342"/><text y="8.183" class="f">remote:</text><text x="8.016" y="8.183" class="f">Counting</text><text x="17.034" y="8.183" class="f">objects:</text><text x="27.054" y="8.183" class="f">51%</text><text x="31.062" y="8.183" class="f">(151/296)</text></svg><svg x="2280"><use xlink:href="#a"/><use xlink:href="#b" x="20.996" y="6.488"/><use xlink:href="#4"/><use xlink:href="#5" y="2.171"/><use xlink:href="#6" y="4.342"/><text y="8.183" class="f">remote:</text><text x="8.016" y="8.183" class="f">Counting</text><text x="17.034" y="8.183" class="f">objects:</text><text x="27.054" y="8.183" class="f">74%</text><text x="31.062" y="8.183" class="f">(220/296)</text></svg><svg x="2400"><use xlink:href="#a"/><use xlink:href="#b" x="32.996" y="6.488"/><use xlink:href="#4"/><use xlink:href="#5" y="2.171"/><use xlink:href="#6" y="4.342"/><text y="8.183" class="f">remote:</text><text x="8.016" y="8.183" class="f">Counting</text><text x="17.034" y="8.183" class="f">objects:</text><text x="27.054" y="8.183" class="f">98%</text><text x="31.062" y="8.183" class="f">(288/296)</text></svg><svg x="2520"><use xlink:href="#a"/><use xlink:href="#b" x="-.004" y="8.659"/><use xlink:href="#4"/><use xlink:href="#5" y="2.171"/><use xlink:href="#6" y="4.342"/><use xlink:href="#7" y="6.513"/><text y="10.354" class="f">remote:</text><text x="8.016" y="10.354" class="f">Compressing</text><text x="20.04" y="10.354" class="f">objects:</text><text x="31.062" y="10.354" class="f">3%</text><text x="34.068" y="10.354" class="f">(7/201)</text></svg><svg x="2640"><use xlink:href="#a"/><use xlink:href="#b" x="-.004" y="8.659"/><use xlink:href="#4"/><use xlink:href="#5" y="2.171"/><use xlink:href="#6" y="4.342"/><use xlink:href="#7" y="6.513"/><text y="10.354" class="f">remote:</text><text x="8.016" y="10.354" class="f">Compressing</text><text x="20.04" y="10.354" class="f">objects:</text><text x="31.062" y="10.354" class="f">5%</text><text x="34.068" y="10.354" class="f">(11/201)</text></svg><svg x="2760"><use xlink:href="#a"/><use xlink:href="#b" x="11.996" y="8.659"/><use xlink:href="#4"/><use xlink:href="#5" y="2.171"/><use xlink:href="#6" y="4.342"/><use xlink:href="#7" y="6.513"/><text y="10.354" class="f">remote:</text><text x="8.016" y="10.354" class="f">Compressing</text><text x="20.04" y="10.354" class="f">objects:</text><text x="30.06" y="10.354" class="f">27%</text><text x="34.068" y="10.354" class="f">(55/201)</text></svg><svg x="2880"><use xlink:href="#a"/><use xlink:href="#b" x="23.996" y="8.659"/><use xlink:href="#4"/><use xlink:href="#5" y="2.171"/><use xlink:href="#6" y="4.342"/><use xlink:href="#7" y="6.513"/><text y="10.354" class="f">remote:</text><text x="8.016" y="10.354" class="f">Compressing</text><text x="20.04" y="10.354" class="f">objects:</text><text x="30.06" y="10.354" class="f">49%</text><text x="34.068" y="10.354" class="f">(99/201)</text></svg><svg x="3000"><use xlink:href="#a"/><use xlink:href="#b" x="13.996" y="8.659"/><use xlink:href="#4"/><use xlink:href="#5" y="2.171"/><use xlink:href="#6" y="4.342"/><use xlink:href="#7" y="6.513"/><text y="10.354" class="f">remote:</text><text x="8.016" y="10.354" class="f">Compressing</text><text x="20.04" y="10.354" class="f">objects:</text><text x="30.06" y="10.354" class="f">71%</text><text x="34.068" y="10.354" class="f">(143/201)</text></svg><svg x="3120"><use xlink:href="#a"/><use xlink:href="#b" x="-.004" y="8.659"/><use xlink:href="#4"/><use xlink:href="#5" y="2.171"/><use xlink:href="#6" y="4.342"/><use xlink:href="#7" y="6.513"/><text y="10.354" class="f">remote:</text><text x="8.016" y="10.354" class="f">Compressing</text><text x="20.04" y="10.354" class="f">objects:</text><text x="30.06" y="10.354" class="f">83%</text><text x="34.068" y="10.354" class="f">(167/201)</text></svg><svg x="3240"><use xlink:href="#a"/><use xlink:href="#b" x="-.004" y="8.659"/><use xlink:href="#4"/><use xlink:href="#5" y="2.171"/><use xlink:href="#6" y="4.342"/><use xlink:href="#7" y="6.513"/><text y="10.354" class="f">remote:</text><text x="8.016" y="10.354" class="f">Compressing</text><text x="20.04" y="10.354" class="f">objects:</text><text x="30.06" y="10.354" class="f">86%</text><text x="34.068" y="10.354" class="f">(173/201)</text></svg><svg x="3360"><use xlink:href="#a"/><use xlink:href="#b" x="-.004" y="10.83"/><use xlink:href="#4"/><use xlink:href="#5" y="2.171"/><use xlink:href="#6" y="4.342"/><use xlink:href="#7" y="6.513"/><use xlink:href="#8" y="8.684"/></svg><svg x="3480"><use xlink:href="#a"/><use xlink:href="#b" x="-.004" y="10.83"/><use xlink:href="#4"/><use xlink:href="#5" y="2.171"/><use xlink:href="#6" y="4.342"/><use xlink:href="#7" y="6.513"/><use xlink:href="#8" y="8.684"/><text y="12.525" class="f">Receiving</text><text x="10.02" y="12.525" class="f">objects:</text><text x="21.042" y="12.525" class="f">0%</text><text x="24.048" y="12.525" class="f">(1/296)</text></svg><svg x="3600"><use xlink:href="#a"/><use xlink:href="#b" x="-.004" y="10.83"/><use xlink:href="#4"/><use xlink:href="#5" y="2.171"/><use xlink:href="#6" y="4.342"/><use xlink:href="#7" y="6.513"/><use xlink:href="#8" y="8.684"/><text y="12.525" class="f">Receiving</text><text x="10.02" y="12.525" class="f">objects:</text><text x="21.042" y="12.525" class="f">1%</text><text x="24.048" y="12.525" class="f">(3/296)</text></svg><svg x="3720"><use xlink:href="#a"/><use xlink:href="#b" x="-.004" y="10.83"/><use xlink:href="#4"/><use xlink:href="#5" y="2.171"/><use xlink:href="#6" y="4.342"/><use xlink:href="#7" y="6.513"/><use xlink:href="#8" y="8.684"/><text y="12.525" class="f">Receiving</text><text x="10.02" y="12.525" class="f">objects:</text><text x="21.042" y="12.525" class="f">2%</text><text x="24.048" y="12.525" class="f">(6/296)</text></svg><svg x="3840"><use xlink:href="#a"/><use xlink:href="#b" x="-.004" y="10.83"/><use xlink:href="#4"/><use xlink:href="#5" y="2.171"/><use xlink:href="#6" y="4.342"/><use xlink:href="#7" y="6.513"/><use xlink:href="#8" y="8.684"/><text y="12.525" class="f">Receiving</text><text x="10.02" y="12.525" class="f">objects:</text><text x="21.042" y="12.525" class="f">4%</text><text x="24.048" y="12.525" class="f">(12/296)</text></svg><svg x="3960"><use xlink:href="#a"/><use xlink:href="#b" x="-.004" y="10.83"/><use xlink:href="#4"/><use xlink:href="#5" y="2.171"/><use xlink:href="#6" y="4.342"/><use xlink:href="#7" y="6.513"/><use xlink:href="#8" y="8.684"/><text y="12.525" class="f">Receiving</text><text x="10.02" y="12.525" class="f">objects:</text><text x="21.042" y="12.525" class="f">5%</text><text x="24.048" y="12.525" class="f">(15/296)</text></svg><svg x="4080"><use xlink:href="#a"/><use xlink:href="#b" x="-.004" y="10.83"/><use xlink:href="#4"/><use xlink:href="#5" y="2.171"/><use xlink:href="#6" y="4.342"/><use xlink:href="#7" y="6.513"/><use xlink:href="#8" y="8.684"/><text y="12.525" class="f">Receiving</text><text x="10.02" y="12.525" class="f">objects:</text><text x="21.042" y="12.525" class="f">8%</text><text x="24.048" y="12.525" class="f">(24/296)</text></svg><svg x="4200"><use xlink:href="#a"/><use xlink:href="#b" x="-.004" y="10.83"/><use xlink:href="#4"/><use xlink:href="#5" y="2.171"/><use xlink:href="#6" y="4.342"/><use xlink:href="#7" y="6.513"/><use xlink:href="#8" y="8.684"/><text y="12.525" class="f">Receiving</text><text x="10.02" y="12.525" class="f">objects:</text><text x="21.042" y="12.525" class="f">9%</text><text x="24.048" y="12.525" class="f">(27/296)</text></svg><svg x="4320"><use xlink:href="#a"/><use xlink:href="#b" x="-.004" y="10.83"/><use xlink:href="#4"/><use xlink:href="#5" y="2.171"/><use xlink:href="#6" y="4.342"/><use xlink:href="#7" y="6.513"/><use xlink:href="#8" y="8.684"/><text y="12.525" class="f">Receiving</text><text x="10.02" y="12.525" class="f">objects:</text><text x="20.04" y="12.525" class="f">11%</text><text x="24.048" y="12.525" class="f">(33/296)</text></svg><svg x="4440"><use xlink:href="#a"/><use xlink:href="#b" x="-.004" y="10.83"/><use xlink:href="#4"/><use xlink:href="#5" y="2.171"/><use xlink:href="#6" y="4.342"/><use xlink:href="#7" y="6.513"/><use xlink:href="#8" y="8.684"/><text y="12.525" class="f">Receiving</text><text x="10.02" y="12.525" class="f">objects:</text><text x="20.04" y="12.525" class="f">12%</text><text x="24.048" y="12.525" class="f">(36/296)</text></svg><svg x="4560"><use xlink:href="#a"/><use xlink:href="#b" x="-.004" y="10.83"/><use xlink:href="#4"/><use xlink:href="#5" y="2.171"/><use xlink:href="#6" y="4.342"/><use xlink:href="#7" y="6.513"/><use xlink:href="#8" y="8.684"/><text y="12.525" class="f">Receiving</text><text x="10.02" y="12.525" class="f">objects:</text><text x="20.04" y="12.525" class="f">14%</text><text x="24.048" y="12.525" class="f">(42/296)</text></svg><svg x="4680"><use xlink:href="#a"/><use xlink:href="#b" x="-.004" y="10.83"/><use xlink:href="#4"/><use xlink:href="#5" y="2.171"/><use xlink:href="#6" y="4.342"/><use xlink:href="#7" y="6.513"/><use xlink:href="#8" y="8.684"/><text y="12.525" class="f">Receiving</text><text x="10.02" y="12.525" class="f">objects:</text><text x="20.04" y="12.525" class="f">15%</text><text x="24.048" y="12.525" class="f">(45/296)</text></svg><svg x="4800"><use xlink:href="#a"/><use xlink:href="#b" x="-.004" y="10.83"/><use xlink:href="#4"/><use xlink:href="#5" y="2.171"/><use xlink:href="#6" y="4.342"/><use xlink:href="#7" y="6.513"/><use xlink:href="#8" y="8.684"/><text y="12.525" class="f">Receiving</text><text x="10.02" y="12.525" class="f">objects:</text><text x="20.04" y="12.525" class="f">16%</text><text x="24.048" y="12.525" class="f">(48/296)</text></svg><svg x="4920"><use xlink:href="#a"/><use xlink:href="#b" x="-.004" y="10.83"/><use xlink:href="#4"/><use xlink:href="#5" y="2.171"/><use xlink:href="#6" y="4.342"/><use xlink:href="#7" y="6.513"/><use xlink:href="#8" y="8.684"/><text y="12.525" class="f">Receiving</text><text x="10.02" y="12.525" class="f">objects:</text><text x="20.04" y="12.525" class="f">18%</text><text x="24.048" y="12.525" class="f">(54/296)</text></svg><svg x="5040"><use xlink:href="#a"/><use xlink:href="#b" x="-.004" y="10.83"/><use xlink:href="#4"/><use xlink:href="#5" y="2.171"/><use xlink:href="#6" y="4.342"/><use xlink:href="#7" y="6.513"/><use xlink:href="#8" y="8.684"/><text y="12.525" class="f">Receiving</text><text x="10.02" y="12.525" class="f">objects:</text><text x="20.04" y="12.525" class="f">19%</text><text x="24.048" y="12.525" class="f">(57/296)</text></svg><svg x="5160"><use xlink:href="#a"/><use xlink:href="#b" x="-.004" y="10.83"/><use xlink:href="#4"/><use xlink:href="#5" y="2.171"/><use xlink:href="#6" y="4.342"/><use xlink:href="#7" y="6.513"/><use xlink:href="#8" y="8.684"/><text y="12.525" class="f">Receiving</text><text x="10.02" y="12.525" class="f">objects:</text><text x="20.04" y="12.525" class="f">20%</text><text x="24.048" y="12.525" class="f">(60/296)</text></svg><svg x="5280"><use xlink:href="#a"/><use xlink:href="#b" x="-.004" y="10.83"/><use xlink:href="#4"/><use xlink:href="#5" y="2.171"/><use xlink:href="#6" y="4.342"/><use xlink:href="#7" y="6.513"/><use xlink:href="#8" y="8.684"/><text y="12.525" class="f">Receiving</text><text x="10.02" y="12.525" class="f">objects:</text><text x="20.04" y="12.525" class="f">21%</text><text x="24.048" y="12.525" class="f">(63/296)</text></svg><svg x="5400"><use xlink:href="#a"/><use xlink:href="#b" x="-.004" y="10.83"/><use xlink:href="#4"/><use xlink:href="#5" y="2.171"/><use xlink:href="#6" y="4.342"/><use xlink:href="#7" y="6.513"/><use xlink:href="#8" y="8.684"/><text y="12.525" class="f">Receiving</text><text x="10.02" y="12.525" class="f">objects:</text><text x="20.04" y="12.525" class="f">22%</text><text x="24.048" y="12.525" class="f">(66/296)</text></svg><svg x="5520"><use xlink:href="#a"/><use xlink:href="#b" x="-.004" y="10.83"/><use xlink:href="#4"/><use xlink:href="#5" y="2.171"/><use xlink:href="#6" y="4.342"/><use xlink:href="#7" y="6.513"/><use xlink:href="#8" y="8.684"/><text y="12.525" class="f">Receiving</text><text x="10.02" y="12.525" class="f">objects:</text><text x="20.04" y="12.525" class="f">23%</text><text x="24.048" y="12.525" class="f">(69/296)</text></svg><svg x="5640"><use xlink:href="#a"/><use xlink:href="#b" x="-.004" y="10.83"/><use xlink:href="#4"/><use xlink:href="#5" y="2.171"/><use xlink:href="#6" y="4.342"/><use xlink:href="#7" y="6.513"/><use xlink:href="#8" y="8.684"/><text y="12.525" class="f">Receiving</text><text x="10.02" y="12.525" class="f">objects:</text><text x="20.04" y="12.525" class="f">25%</text><text x="24.048" y="12.525" class="f">(74/296)</text></svg><svg x="5760"><use xlink:href="#a"/><use xlink:href="#b" x="-.004" y="10.83"/><use xlink:href="#4"/><use xlink:href="#5" y="2.171"/><use xlink:href="#6" y="4.342"/><use xlink:href="#7" y="6.513"/><use xlink:href="#8" y="8.684"/><text y="12.525" class="f">Receiving</text><text x="10.02" y="12.525" class="f">objects:</text><text x="20.04" y="12.525" class="f">26%</text><text x="24.048" y="12.525" class="f">(77/296)</text></svg><svg x="5880"><use xlink:href="#a"/><use xlink:href="#b" x="-.004" y="10.83"/><use xlink:href="#4"/><use xlink:href="#5" y="2.171"/><use xlink:href="#6" y="4.342"/><use xlink:href="#7" y="6.513"/><use xlink:href="#8" y="8.684"/><text y="12.525" class="f">Receiving</text><text x="10.02" y="12.525" class="f">objects:</text><text x="20.04" y="12.525" class="f">27%</text><text x="24.048" y="12.525" class="f">(80/296)</text></svg><svg x="6000"><use xlink:href="#a"/><use xlink:href="#b" x="-.004" y="10.83"/><use xlink:href="#4"/><use xlink:href="#5" y="2.171"/><use xlink:href="#6" y="4.342"/><use xlink:href="#7" y="6.513"/><use xlink:href="#8" y="8.684"/><text y="12.525" class="f">Receiving</text><text x="10.02" y="12.525" class="f">objects:</text><text x="20.04" y="12.525" class="f">29%</text><text x="24.048" y="12.525" class="f">(86/296)</text></svg><svg x="6120"><use xlink:href="#a"/><use xlink:href="#b" x="-.004" y="10.83"/><use xlink:href="#4"/><use xlink:href="#5" y="2.171"/><use xlink:href="#6" y="4.342"/><use xlink:href="#7" y="6.513"/><use xlink:href="#8" y="8.684"/><text y="12.525" class="f">Receiving</text><text x="10.02" y="12.525" class="f">objects:</text><text x="20.04" y="12.525" class="f">31%</text><text x="24.048" y="12.525" class="f">(92/296)</text></svg><svg x="6240"><use xlink:href="#a"/><use xlink:href="#b" x="-.004" y="10.83"/><use xlink:href="#4"/><use xlink:href="#5" y="2.171"/><use xlink:href="#6" y="4.342"/><use xlink:href="#7" y="6.513"/><use xlink:href="#8" y="8.684"/><text y="12.525" class="f">Receiving</text><text x="10.02" y="12.525" class="f">objects:</text><text x="20.04" y="12.525" class="f">33%</text><text x="24.048" y="12.525" class="f">(98/296)</text></svg><svg x="6360"><use xlink:href="#a"/><use xlink:href="#b" x="-.004" y="10.83"/><use xlink:href="#4"/><use xlink:href="#5" y="2.171"/><use xlink:href="#6" y="4.342"/><use xlink:href="#7" y="6.513"/><use xlink:href="#8" y="8.684"/><text y="12.525" class="f">Receiving</text><text x="10.02" y="12.525" class="f">objects:</text><text x="20.04" y="12.525" class="f">36%</text><text x="24.048" y="12.525" class="f">(107/296)</text></svg><svg x="6480"><use xlink:href="#a"/><use xlink:href="#b" x="-.004" y="10.83"/><use xlink:href="#4"/><use xlink:href="#5" y="2.171"/><use xlink:href="#6" y="4.342"/><use xlink:href="#7" y="6.513"/><use xlink:href="#8" y="8.684"/><text y="12.525" class="f">Receiving</text><text x="10.02" y="12.525" class="f">objects:</text><text x="20.04" y="12.525" class="f">37%</text><text x="24.048" y="12.525" class="f">(110/296)</text></svg><svg x="6600"><use xlink:href="#a"/><use xlink:href="#b" x="-.004" y="10.83"/><use xlink:href="#4"/><use xlink:href="#5" y="2.171"/><use xlink:href="#6" y="4.342"/><use xlink:href="#7" y="6.513"/><use xlink:href="#8" y="8.684"/><text y="12.525" class="f">Receiving</text><text x="10.02" y="12.525" class="f">objects:</text><text x="20.04" y="12.525" class="f">39%</text><text x="24.048" y="12.525" class="f">(116/296)</text></svg><svg x="6720"><use xlink:href="#a"/><use xlink:href="#b" x="-.004" y="10.83"/><use xlink:href="#4"/><use xlink:href="#5" y="2.171"/><use xlink:href="#6" y="4.342"/><use xlink:href="#7" y="6.513"/><use xlink:href="#8" y="8.684"/><text y="12.525" class="f">Receiving</text><text x="10.02" y="12.525" class="f">objects:</text><text x="20.04" y="12.525" class="f">43%</text><text x="24.048" y="12.525" class="f">(128/296)</text></svg><svg x="6840"><use xlink:href="#a"/><use xlink:href="#b" x="-.004" y="10.83"/><use xlink:href="#4"/><use xlink:href="#5" y="2.171"/><use xlink:href="#6" y="4.342"/><use xlink:href="#7" y="6.513"/><use xlink:href="#8" y="8.684"/><text y="12.525" class="f">Receiving</text><text x="10.02" y="12.525" class="f">objects:</text><text x="20.04" y="12.525" class="f">49%</text><text x="24.048" y="12.525" class="f">(146/296)</text></svg><svg x="6960"><use xlink:href="#a"/><use xlink:href="#b" x="24.996" y="10.83"/><use xlink:href="#4"/><use xlink:href="#5" y="2.171"/><use xlink:href="#6" y="4.342"/><use xlink:href="#7" y="6.513"/><use xlink:href="#8" y="8.684"/><text y="12.525" class="f">Receiving</text><text x="10.02" y="12.525" class="f">objects:</text><text x="20.04" y="12.525" class="f">77%</text><text x="24.048" y="12.525" class="f">(225/296)</text></svg><svg x="7080"><use xlink:href="#a"/><use xlink:href="#b" x="22.996" y="10.83"/><use xlink:href="#6"/><use xlink:href="#7" y="2.171"/><use xlink:href="#8" y="4.342"/><use xlink:href="#9" y="6.513"/><use xlink:href="#10" y="8.684"/><text y="12.525" class="f">Resolving</text><text x="10.02" y="12.525" class="f">deltas:</text><text x="20.04" y="12.525" class="f">0%</text></svg><svg x="7200"><use xlink:href="#a"/><use xlink:href="#b" x="-.004" y="10.83"/><use xlink:href="#6"/><use xlink:href="#7" y="2.171"/><use xlink:href="#8" y="4.342"/><use xlink:href="#9" y="6.513"/><use xlink:href="#10" y="8.684"/><text y="12.525" class="f">Resolving</text><text x="10.02" y="12.525" class="f">deltas:</text><text x="19.038" y="12.525" class="f">89%</text><text x="23.046" y="12.525" class="f">(127/142)</text></svg><svg x="7320"><use xlink:href="#a"/><use xlink:href="#b" x="-.004" y="10.83"/><use xlink:href="#7"/><use xlink:href="#8" y="2.171"/><use xlink:href="#9" y="4.342"/><use xlink:href="#10" y="6.513"/><use xlink:href="#11" y="8.684"/></svg><svg x="7440"><use xlink:href="#a"/><use xlink:href="#b" x="13.996" y="10.83"/><use xlink:href="#7"/><use xlink:href="#8" y="2.171"/><use xlink:href="#9" y="4.342"/><use xlink:href="#10" y="6.513"/><use xlink:href="#11" y="8.684"/><use xlink:href="#1" y="10.855"/></svg><svg x="7560"><use xlink:href="#a"/><use xlink:href="#b" x="-.004" y="10.83"/><use xlink:href="#8"/><use xlink:href="#9" y="2.171"/><use xlink:href="#10" y="4.342"/><use xlink:href="#11" y="6.513"/><text y="10.354" class="f">root@Artem:~#</text><text x="14.028" y="10.354" class="f">exit</text></svg></svg></g></g></svg></svg>