<svg xmlns="http://www.w3.org/2000/svg" xmlns:xlink="http://www.w3.org/1999/xlink" width="1240" height="711.3"><rect width="1240" height="711.3" rx="5" ry="5" class="a"/><svg y="0%" x="0%"><circle cx="20" cy="20" r="6" fill="#ff5f58"/><circle cx="40" cy="20" r="6" fill="#ffbd2e"/><circle cx="60" cy="20" r="6" fill="#18c132"/></svg><svg height="651.3" viewBox="0 0 120 65.13" width="1200" x="15" xmlns="http://www.w3.org/2000/svg" xmlns:xlink="http://www.w3.org/1999/xlink" y="50"><style>@keyframes i{0%{transform:translateX(0)}.64%{transform:translateX(-120px)}4.42%{transform:translateX(-240px)}4.72%{transform:translateX(-360px)}5.47%{transform:translateX(-480px)}8.5%{transform:translateX(-600px)}9%{transform:translateX(-720px)}9.55%{transform:translateX(-840px)}10.18%{transform:translateX(-960px)}12.26%{transform:translateX(-1080px)}15.15%{transform:translateX(-1200px)}15.67%{transform:translateX(-1320px)}16.58%{transform:translateX(-1440px)}17.59%{transform:translateX(-1560px)}17.96%{transform:translateX(-1680px)}18.33%{transform:translateX(-1800px)}19.97%{transform:translateX(-1920px)}21.62%{transform:translateX(-2040px)}22.16%{transform:translateX(-2160px)}22.79%{transform:translateX(-2280px)}26.27%{transform:translateX(-2400px)}26.98%{transform:translateX(-2520px)}27.8%{transform:translateX(-2640px)}29.08%{transform:translateX(-2760px)}29.57%{transform:translateX(-2880px)}29.94%{transform:translateX(-3000px)}32.02%{transform:translateX(-3120px)}33.97%{transform:translateX(-3240px)}34.59%{transform:translateX(-3360px)}36.51%{transform:translateX(-3480px)}41.3%{transform:translateX(-3600px)}42.91%{transform:translateX(-3720px)}42.98%{transform:translateX(-3840px)}49.46%{transform:translateX(-3960px)}49.86%{transform:translateX(-4080px)}50.75%{transform:translateX(-4200px)}52.06%{transform:translateX(-4320px)}52.6%{transform:translateX(-4440px)}53.09%{transform:translateX(-4560px)}53.67%{transform:translateX(-4680px)}54.54%{transform:translateX(-4800px)}55.87%{transform:translateX(-4920px)}57.44%{transform:translateX(-5040px)}58.63%{transform:translateX(-5160px)}59.3%{transform:translateX(-5280px)}59.84%{transform:translateX(-5400px)}61.38%{transform:translateX(-5520px)}62.5%{transform:translateX(-5640px)}63.32%{transform:translateX(-5760px)}64.13%{transform:translateX(-5880px)}66.27%{transform:translateX(-6000px)}67.69%{transform:translateX(-6120px)}68.42%{transform:translateX(-6240px)}69.81%{transform:translateX(-6360px)}70.48%{transform:translateX(-6480px)}71.14%{transform:translateX(-6600px)}71.51%{transform:translateX(-6720px)}73.59%{transform:translateX(-6840px)}77.15%{transform:translateX(-6960px)}77.69%{transform:translateX(-7080px)}79.76%{transform:translateX(-7200px)}83.81%{transform:translateX(-7320px)}85.2%{transform:translateX(-7440px)}85.27%{transform:translateX(-7560px)}to{transform:translateX(-7680px)}}.a{fill:#282d35}.f{fill:#b9c0cb;white-space:pre}</style><g font-family="Monaco,Consolas,Menlo,'Bitstream Vera Sans Mono','Powerline Symbols',monospace" font-size="1.67"><defs><symbol id="1"><text y="1.67" class="f">root@artem:/mnt/c/project-gendiff/__tests__/fixtures#</text></symbol><symbol id="2"><text y="1.67" class="f">root@artem:/mnt/c/project-gendiff/__tests__/fixtures#</text><text x="54.108" y="1.67" class="f">g</text></symbol><symbol id="3"><text y="1.67" class="f">root@artem:/mnt/c/project-gendiff/__tests__/fixtures#</text><text x="54.108" y="1.67" class="f">ge</text></symbol><symbol id="4"><text y="1.67" class="f">root@artem:/mnt/c/project-gendiff/__tests__/fixtures#</text><text x="54.108" y="1.67" class="f">gen</text></symbol><symbol id="5"><text y="1.67" class="f">root@artem:/mnt/c/project-gendiff/__tests__/fixtures#</text><text x="54.108" y="1.67" class="f">gend</text></symbol><symbol id="6"><text y="1.67" class="f">root@artem:/mnt/c/project-gendiff/__tests__/fixtures#</text><text x="54.108" y="1.67" class="f">gendi</text></symbol><symbol id="7"><text y="1.67" class="f">root@artem:/mnt/c/project-gendiff/__tests__/fixtures#</text><text x="54.108" y="1.67" class="f">gendif</text></symbol><symbol id="8"><text y="1.67" class="f">root@artem:/mnt/c/project-gendiff/__tests__/fixtures#</text><text x="54.108" y="1.67" class="f">gendiff</text></symbol><symbol id="9"><text y="1.67" class="f">root@artem:/mnt/c/project-gendiff/__tests__/fixtures#</text><text x="54.108" y="1.67" class="f">gendiff</text><text x="62.124" y="1.67" class="f">before.ini</text></symbol><symbol id="10"><text y="1.67" class="f">root@artem:/mnt/c/project-gendiff/__tests__/fixtures#</text><text x="54.108" y="1.67" class="f">gendiff</text><text x="62.124" y="1.67" class="f">before.ini</text><text x="73.146" y="1.67" class="f">after.ini</text></symbol><symbol id="11"><text y="1.67" class="f">{</text></symbol><symbol id="12"><text x="4.008" y="1.67" class="f">host:</text><text x="10.02" y="1.67" class="f">hexlet.io</text></symbol><symbol id="13"><text x="2.004" y="1.67" class="f">-</text><text x="4.008" y="1.67" class="f">timeout:</text><text x="13.026" y="1.67" class="f">50</text></symbol><symbol id="14"><text x="2.004" y="1.67" class="f">+</text><text x="4.008" y="1.67" class="f">timeout:</text><text x="13.026" y="1.67" class="f">20</text></symbol><symbol id="15"><text x="2.004" y="1.67" class="f">-</text><text x="4.008" y="1.67" class="f">proxy:</text><text x="11.022" y="1.67" class="f">123.234.53.22</text></symbol><symbol id="16"><text x="2.004" y="1.67" class="f">-</text><text x="4.008" y="1.67" class="f">follow:</text><text x="12.024" y="1.67" class="f">false</text></symbol><symbol id="17"><text x="2.004" y="1.67" class="f">+</text><text x="4.008" y="1.67" class="f">verbose:</text><text x="13.026" y="1.67" class="f">true</text></symbol><symbol id="18"><text y="1.67" class="f">}</text></symbol><symbol id="19"><text y="1.67" class="f">root@artem:/mnt/c/project-gendiff/__tests__/fixtures#</text><text x="54.108" y="1.67" class="f">gendiff</text><text x="62.124" y="1.67" class="f">after.ini</text></symbol><symbol id="20"><text y="1.67" class="f">root@artem:/mnt/c/project-gendiff/__tests__/fixtures#</text><text x="54.108" y="1.67" class="f">gendiff</text><text x="62.124" y="1.67" class="f">after.ini</text><text x="72.144" y="1.67" class="f">before.ini</text></symbol><symbol id="21"><text x="2.004" y="1.67" class="f">-</text><text x="4.008" y="1.67" class="f">timeout:</text><text x="13.026" y="1.67" class="f">20</text></symbol><symbol id="22"><text x="2.004" y="1.67" class="f">+</text><text x="4.008" y="1.67" class="f">timeout:</text><text x="13.026" y="1.67" class="f">50</text></symbol><symbol id="23"><text x="2.004" y="1.67" class="f">-</text><text x="4.008" y="1.67" class="f">verbose:</text><text x="13.026" y="1.67" class="f">true</text></symbol><symbol id="24"><text x="2.004" y="1.67" class="f">+</text><text x="4.008" y="1.67" class="f">proxy:</text><text x="11.022" y="1.67" class="f">123.234.53.22</text></symbol><symbol id="25"><text x="2.004" y="1.67" class="f">+</text><text x="4.008" y="1.67" class="f">follow:</text><text x="12.024" y="1.67" class="f">false</text></symbol><symbol id="a"><path fill="transparent" d="M0 0h120v30H0z"/></symbol><symbol id="b"><path fill="#6f7683" d="M0 0h1.102v2.171H0z"/></symbol></defs><path class="a" d="M0 0h120v65.13H0z"/><g style="animation-duration:24.486614s;animation-iteration-count:infinite;animation-name:i;animation-timing-function:steps(1,end)"><svg width="7800"><svg><use xlink:href="#a"/><use xlink:href="#b" x="-.004"/></svg><svg x="120"><use xlink:href="#a"/><use xlink:href="#b" x="53.996"/><use xlink:href="#1"/></svg><svg x="240"><use xlink:href="#a"/><use xlink:href="#b" x="54.996"/><use xlink:href="#2"/></svg><svg x="360"><use xlink:href="#a"/><use xlink:href="#b" x="55.996"/><use xlink:href="#3"/></svg><svg x="480"><use xlink:href="#a"/><use xlink:href="#b" x="56.996"/><use xlink:href="#4"/></svg><svg x="600"><use xlink:href="#a"/><use xlink:href="#b" x="57.996"/><use xlink:href="#5"/></svg><svg x="720"><use xlink:href="#a"/><use xlink:href="#b" x="58.996"/><use xlink:href="#6"/></svg><svg x="840"><use xlink:href="#a"/><use xlink:href="#b" x="59.996"/><use xlink:href="#7"/></svg><svg x="960"><use xlink:href="#a"/><use xlink:href="#b" x="60.996"/><use xlink:href="#8"/></svg><svg x="1080"><use xlink:href="#a"/><use xlink:href="#b" x="61.996"/><use xlink:href="#8"/></svg><svg x="1200"><use xlink:href="#a"/><use xlink:href="#b" x="62.996"/><text y="1.67" class="f">root@artem:/mnt/c/project-gendiff/__tests__/fixtures#</text><text x="54.108" y="1.67" class="f">gendiff</text><text x="62.124" y="1.67" class="f">b</text></svg><svg x="1320"><use xlink:href="#a"/><use xlink:href="#b" x="63.996"/><text y="1.67" class="f">root@artem:/mnt/c/project-gendiff/__tests__/fixtures#</text><text x="54.108" y="1.67" class="f">gendiff</text><text x="62.124" y="1.67" class="f">be</text></svg><svg x="1440"><use xlink:href="#a"/><use xlink:href="#b" x="64.996"/><text y="1.67" class="f">root@artem:/mnt/c/project-gendiff/__tests__/fixtures#</text><text x="54.108" y="1.67" class="f">gendiff</text><text x="62.124" y="1.67" class="f">bef</text></svg><svg x="1560"><use xlink:href="#a"/><use xlink:href="#b" x="65.996"/><text y="1.67" class="f">root@artem:/mnt/c/project-gendiff/__tests__/fixtures#</text><text x="54.108" y="1.67" class="f">gendiff</text><text x="62.124" y="1.67" class="f">befo</text></svg><svg x="1680"><use xlink:href="#a"/><use xlink:href="#b" x="66.996"/><text y="1.67" class="f">root@artem:/mnt/c/project-gendiff/__tests__/fixtures#</text><text x="54.108" y="1.67" class="f">gendiff</text><text x="62.124" y="1.67" class="f">befor</text></svg><svg x="1800"><use xlink:href="#a"/><use xlink:href="#b" x="67.996"/><text y="1.67" class="f">root@artem:/mnt/c/project-gendiff/__tests__/fixtures#</text><text x="54.108" y="1.67" class="f">gendiff</text><text x="62.124" y="1.67" class="f">before</text></svg><svg x="1920"><use xlink:href="#a"/><use xlink:href="#b" x="68.996"/><text y="1.67" class="f">root@artem:/mnt/c/project-gendiff/__tests__/fixtures#</text><text x="54.108" y="1.67" class="f">gendiff</text><text x="62.124" y="1.67" class="f">before.</text></svg><svg x="2040"><use xlink:href="#a"/><use xlink:href="#b" x="69.996"/><text y="1.67" class="f">root@artem:/mnt/c/project-gendiff/__tests__/fixtures#</text><text x="54.108" y="1.67" class="f">gendiff</text><text x="62.124" y="1.67" class="f">before.i</text></svg><svg x="2160"><use xlink:href="#a"/><use xlink:href="#b" x="70.996"/><text y="1.67" class="f">root@artem:/mnt/c/project-gendiff/__tests__/fixtures#</text><text x="54.108" y="1.67" class="f">gendiff</text><text x="62.124" y="1.67" class="f">before.in</text></svg><svg x="2280"><use xlink:href="#a"/><use xlink:href="#b" x="71.996"/><use xlink:href="#9"/></svg><svg x="2400"><use xlink:href="#a"/><use xlink:href="#b" x="72.996"/><use xlink:href="#9"/></svg><svg x="2520"><use xlink:href="#a"/><use xlink:href="#b" x="73.996"/><text y="1.67" class="f">root@artem:/mnt/c/project-gendiff/__tests__/fixtures#</text><text x="54.108" y="1.67" class="f">gendiff</text><text x="62.124" y="1.67" class="f">before.ini</text><text x="73.146" y="1.67" class="f">a</text></svg><svg x="2640"><use xlink:href="#a"/><use xlink:href="#b" x="74.996"/><text y="1.67" class="f">root@artem:/mnt/c/project-gendiff/__tests__/fixtures#</text><text x="54.108" y="1.67" class="f">gendiff</text><text x="62.124" y="1.67" class="f">before.ini</text><text x="73.146" y="1.67" class="f">af</text></svg><svg x="2760"><use xlink:href="#a"/><use xlink:href="#b" x="75.996"/><text y="1.67" class="f">root@artem:/mnt/c/project-gendiff/__tests__/fixtures#</text><text x="54.108" y="1.67" class="f">gendiff</text><text x="62.124" y="1.67" class="f">before.ini</text><text x="73.146" y="1.67" class="f">aft</text></svg><svg x="2880"><use xlink:href="#a"/><use xlink:href="#b" x="76.996"/><text y="1.67" class="f">root@artem:/mnt/c/project-gendiff/__tests__/fixtures#</text><text x="54.108" y="1.67" class="f">gendiff</text><text x="62.124" y="1.67" class="f">before.ini</text><text x="73.146" y="1.67" class="f">afte</text></svg><svg x="3000"><use xlink:href="#a"/><use xlink:href="#b" x="77.996"/><text y="1.67" class="f">root@artem:/mnt/c/project-gendiff/__tests__/fixtures#</text><text x="54.108" y="1.67" class="f">gendiff</text><text x="62.124" y="1.67" class="f">before.ini</text><text x="73.146" y="1.67" class="f">after</text></svg><svg x="3120"><use xlink:href="#a"/><use xlink:href="#b" x="78.996"/><text y="1.67" class="f">root@artem:/mnt/c/project-gendiff/__tests__/fixtures#</text><text x="54.108" y="1.67" class="f">gendiff</text><text x="62.124" y="1.67" class="f">before.ini</text><text x="73.146" y="1.67" class="f">after.</text></svg><svg x="3240"><use xlink:href="#a"/><use xlink:href="#b" x="79.996"/><text y="1.67" class="f">root@artem:/mnt/c/project-gendiff/__tests__/fixtures#</text><text x="54.108" y="1.67" class="f">gendiff</text><text x="62.124" y="1.67" class="f">before.ini</text><text x="73.146" y="1.67" class="f">after.i</text></svg><svg x="3360"><use xlink:href="#a"/><use xlink:href="#b" x="80.996"/><text y="1.67" class="f">root@artem:/mnt/c/project-gendiff/__tests__/fixtures#</text><text x="54.108" y="1.67" class="f">gendiff</text><text x="62.124" y="1.67" class="f">before.ini</text><text x="73.146" y="1.67" class="f">after.in</text></svg><svg x="3480"><use xlink:href="#a"/><use xlink:href="#b" x="81.996"/><use xlink:href="#10"/></svg><svg x="3600"><use xlink:href="#a"/><use xlink:href="#b" x="-.004" y="2.146"/><use xlink:href="#10"/></svg><svg x="3720"><use xlink:href="#a"/><use xlink:href="#b" x="-.004" y="19.514"/><use xlink:href="#10"/><use xlink:href="#11" y="2.171"/><use xlink:href="#12" y="4.342"/><use xlink:href="#13" y="6.513"/><use xlink:href="#14" y="8.684"/><use xlink:href="#15" y="10.855"/><use xlink:href="#16" y="13.026"/><use xlink:href="#17" y="15.197"/><use xlink:href="#18" y="17.368"/></svg><svg x="3840"><use xlink:href="#a"/><use xlink:href="#b" x="53.996" y="19.514"/><use xlink:href="#10"/><use xlink:href="#11" y="2.171"/><use xlink:href="#12" y="4.342"/><use xlink:href="#13" y="6.513"/><use xlink:href="#14" y="8.684"/><use xlink:href="#15" y="10.855"/><use xlink:href="#16" y="13.026"/><use xlink:href="#17" y="15.197"/><use xlink:href="#18" y="17.368"/><use xlink:href="#1" y="19.539"/></svg><svg x="3960"><use xlink:href="#a"/><use xlink:href="#b" x="54.996" y="19.514"/><use xlink:href="#10"/><use xlink:href="#11" y="2.171"/><use xlink:href="#12" y="4.342"/><use xlink:href="#13" y="6.513"/><use xlink:href="#14" y="8.684"/><use xlink:href="#15" y="10.855"/><use xlink:href="#16" y="13.026"/><use xlink:href="#17" y="15.197"/><use xlink:href="#18" y="17.368"/><use xlink:href="#2" y="19.539"/></svg><svg x="4080"><use xlink:href="#a"/><use xlink:href="#b" x="55.996" y="19.514"/><use xlink:href="#10"/><use xlink:href="#11" y="2.171"/><use xlink:href="#12" y="4.342"/><use xlink:href="#13" y="6.513"/><use xlink:href="#14" y="8.684"/><use xlink:href="#15" y="10.855"/><use xlink:href="#16" y="13.026"/><use xlink:href="#17" y="15.197"/><use xlink:href="#18" y="17.368"/><use xlink:href="#3" y="19.539"/></svg><svg x="4200"><use xlink:href="#a"/><use xlink:href="#b" x="56.996" y="19.514"/><use xlink:href="#10"/><use xlink:href="#11" y="2.171"/><use xlink:href="#12" y="4.342"/><use xlink:href="#13" y="6.513"/><use xlink:href="#14" y="8.684"/><use xlink:href="#15" y="10.855"/><use xlink:href="#16" y="13.026"/><use xlink:href="#17" y="15.197"/><use xlink:href="#18" y="17.368"/><use xlink:href="#4" y="19.539"/></svg><svg x="4320"><use xlink:href="#a"/><use xlink:href="#b" x="57.996" y="19.514"/><use xlink:href="#10"/><use xlink:href="#11" y="2.171"/><use xlink:href="#12" y="4.342"/><use xlink:href="#13" y="6.513"/><use xlink:href="#14" y="8.684"/><use xlink:href="#15" y="10.855"/><use xlink:href="#16" y="13.026"/><use xlink:href="#17" y="15.197"/><use xlink:href="#18" y="17.368"/><use xlink:href="#5" y="19.539"/></svg><svg x="4440"><use xlink:href="#a"/><use xlink:href="#b" x="58.996" y="19.514"/><use xlink:href="#10"/><use xlink:href="#11" y="2.171"/><use xlink:href="#12" y="4.342"/><use xlink:href="#13" y="6.513"/><use xlink:href="#14" y="8.684"/><use xlink:href="#15" y="10.855"/><use xlink:href="#16" y="13.026"/><use xlink:href="#17" y="15.197"/><use xlink:href="#18" y="17.368"/><use xlink:href="#6" y="19.539"/></svg><svg x="4560"><use xlink:href="#a"/><use xlink:href="#b" x="59.996" y="19.514"/><use xlink:href="#10"/><use xlink:href="#11" y="2.171"/><use xlink:href="#12" y="4.342"/><use xlink:href="#13" y="6.513"/><use xlink:href="#14" y="8.684"/><use xlink:href="#15" y="10.855"/><use xlink:href="#16" y="13.026"/><use xlink:href="#17" y="15.197"/><use xlink:href="#18" y="17.368"/><use xlink:href="#7" y="19.539"/></svg><svg x="4680"><use xlink:href="#a"/><use xlink:href="#b" x="60.996" y="19.514"/><use xlink:href="#10"/><use xlink:href="#11" y="2.171"/><use xlink:href="#12" y="4.342"/><use xlink:href="#13" y="6.513"/><use xlink:href="#14" y="8.684"/><use xlink:href="#15" y="10.855"/><use xlink:href="#16" y="13.026"/><use xlink:href="#17" y="15.197"/><use xlink:href="#18" y="17.368"/><use xlink:href="#8" y="19.539"/></svg><svg x="4800"><use xlink:href="#a"/><use xlink:href="#b" x="61.996" y="19.514"/><use xlink:href="#10"/><use xlink:href="#11" y="2.171"/><use xlink:href="#12" y="4.342"/><use xlink:href="#13" y="6.513"/><use xlink:href="#14" y="8.684"/><use xlink:href="#15" y="10.855"/><use xlink:href="#16" y="13.026"/><use xlink:href="#17" y="15.197"/><use xlink:href="#18" y="17.368"/><use xlink:href="#8" y="19.539"/></svg><svg x="4920"><use xlink:href="#a"/><use xlink:href="#b" x="62.996" y="19.514"/><use xlink:href="#10"/><use xlink:href="#11" y="2.171"/><use xlink:href="#12" y="4.342"/><use xlink:href="#13" y="6.513"/><use xlink:href="#14" y="8.684"/><use xlink:href="#15" y="10.855"/><use xlink:href="#16" y="13.026"/><use xlink:href="#17" y="15.197"/><use xlink:href="#18" y="17.368"/><text y="21.209" class="f">root@artem:/mnt/c/project-gendiff/__tests__/fixtures#</text><text x="54.108" y="21.209" class="f">gendiff</text><text x="62.124" y="21.209" class="f">a</text></svg><svg x="5040"><use xlink:href="#a"/><use xlink:href="#b" x="63.996" y="19.514"/><use xlink:href="#10"/><use xlink:href="#11" y="2.171"/><use xlink:href="#12" y="4.342"/><use xlink:href="#13" y="6.513"/><use xlink:href="#14" y="8.684"/><use xlink:href="#15" y="10.855"/><use xlink:href="#16" y="13.026"/><use xlink:href="#17" y="15.197"/><use xlink:href="#18" y="17.368"/><text y="21.209" class="f">root@artem:/mnt/c/project-gendiff/__tests__/fixtures#</text><text x="54.108" y="21.209" class="f">gendiff</text><text x="62.124" y="21.209" class="f">af</text></svg><svg x="5160"><use xlink:href="#a"/><use xlink:href="#b" x="64.996" y="19.514"/><use xlink:href="#10"/><use xlink:href="#11" y="2.171"/><use xlink:href="#12" y="4.342"/><use xlink:href="#13" y="6.513"/><use xlink:href="#14" y="8.684"/><use xlink:href="#15" y="10.855"/><use xlink:href="#16" y="13.026"/><use xlink:href="#17" y="15.197"/><use xlink:href="#18" y="17.368"/><text y="21.209" class="f">root@artem:/mnt/c/project-gendiff/__tests__/fixtures#</text><text x="54.108" y="21.209" class="f">gendiff</text><text x="62.124" y="21.209" class="f">aft</text></svg><svg x="5280"><use xlink:href="#a"/><use xlink:href="#b" x="65.996" y="19.514"/><use xlink:href="#10"/><use xlink:href="#11" y="2.171"/><use xlink:href="#12" y="4.342"/><use xlink:href="#13" y="6.513"/><use xlink:href="#14" y="8.684"/><use xlink:href="#15" y="10.855"/><use xlink:href="#16" y="13.026"/><use xlink:href="#17" y="15.197"/><use xlink:href="#18" y="17.368"/><text y="21.209" class="f">root@artem:/mnt/c/project-gendiff/__tests__/fixtures#</text><text x="54.108" y="21.209" class="f">gendiff</text><text x="62.124" y="21.209" class="f">afte</text></svg><svg x="5400"><use xlink:href="#a"/><use xlink:href="#b" x="66.996" y="19.514"/><use xlink:href="#10"/><use xlink:href="#11" y="2.171"/><use xlink:href="#12" y="4.342"/><use xlink:href="#13" y="6.513"/><use xlink:href="#14" y="8.684"/><use xlink:href="#15" y="10.855"/><use xlink:href="#16" y="13.026"/><use xlink:href="#17" y="15.197"/><use xlink:href="#18" y="17.368"/><text y="21.209" class="f">root@artem:/mnt/c/project-gendiff/__tests__/fixtures#</text><text x="54.108" y="21.209" class="f">gendiff</text><text x="62.124" y="21.209" class="f">after</text></svg><svg x="5520"><use xlink:href="#a"/><use xlink:href="#b" x="67.996" y="19.514"/><use xlink:href="#10"/><use xlink:href="#11" y="2.171"/><use xlink:href="#12" y="4.342"/><use xlink:href="#13" y="6.513"/><use xlink:href="#14" y="8.684"/><use xlink:href="#15" y="10.855"/><use xlink:href="#16" y="13.026"/><use xlink:href="#17" y="15.197"/><use xlink:href="#18" y="17.368"/><text y="21.209" class="f">root@artem:/mnt/c/project-gendiff/__tests__/fixtures#</text><text x="54.108" y="21.209" class="f">gendiff</text><text x="62.124" y="21.209" class="f">after.</text></svg><svg x="5640"><use xlink:href="#a"/><use xlink:href="#b" x="68.996" y="19.514"/><use xlink:href="#10"/><use xlink:href="#11" y="2.171"/><use xlink:href="#12" y="4.342"/><use xlink:href="#13" y="6.513"/><use xlink:href="#14" y="8.684"/><use xlink:href="#15" y="10.855"/><use xlink:href="#16" y="13.026"/><use xlink:href="#17" y="15.197"/><use xlink:href="#18" y="17.368"/><text y="21.209" class="f">root@artem:/mnt/c/project-gendiff/__tests__/fixtures#</text><text x="54.108" y="21.209" class="f">gendiff</text><text x="62.124" y="21.209" class="f">after.i</text></svg><svg x="5760"><use xlink:href="#a"/><use xlink:href="#b" x="69.996" y="19.514"/><use xlink:href="#10"/><use xlink:href="#11" y="2.171"/><use xlink:href="#12" y="4.342"/><use xlink:href="#13" y="6.513"/><use xlink:href="#14" y="8.684"/><use xlink:href="#15" y="10.855"/><use xlink:href="#16" y="13.026"/><use xlink:href="#17" y="15.197"/><use xlink:href="#18" y="17.368"/><text y="21.209" class="f">root@artem:/mnt/c/project-gendiff/__tests__/fixtures#</text><text x="54.108" y="21.209" class="f">gendiff</text><text x="62.124" y="21.209" class="f">after.in</text></svg><svg x="5880"><use xlink:href="#a"/><use xlink:href="#b" x="70.996" y="19.514"/><use xlink:href="#10"/><use xlink:href="#11" y="2.171"/><use xlink:href="#12" y="4.342"/><use xlink:href="#13" y="6.513"/><use xlink:href="#14" y="8.684"/><use xlink:href="#15" y="10.855"/><use xlink:href="#16" y="13.026"/><use xlink:href="#17" y="15.197"/><use xlink:href="#18" y="17.368"/><use xlink:href="#19" y="19.539"/></svg><svg x="6000"><use xlink:href="#a"/><use xlink:href="#b" x="71.996" y="19.514"/><use xlink:href="#10"/><use xlink:href="#11" y="2.171"/><use xlink:href="#12" y="4.342"/><use xlink:href="#13" y="6.513"/><use xlink:href="#14" y="8.684"/><use xlink:href="#15" y="10.855"/><use xlink:href="#16" y="13.026"/><use xlink:href="#17" y="15.197"/><use xlink:href="#18" y="17.368"/><use xlink:href="#19" y="19.539"/></svg><svg x="6120"><use xlink:href="#a"/><use xlink:href="#b" x="72.996" y="19.514"/><use xlink:href="#10"/><use xlink:href="#11" y="2.171"/><use xlink:href="#12" y="4.342"/><use xlink:href="#13" y="6.513"/><use xlink:href="#14" y="8.684"/><use xlink:href="#15" y="10.855"/><use xlink:href="#16" y="13.026"/><use xlink:href="#17" y="15.197"/><use xlink:href="#18" y="17.368"/><text y="21.209" class="f">root@artem:/mnt/c/project-gendiff/__tests__/fixtures#</text><text x="54.108" y="21.209" class="f">gendiff</text><text x="62.124" y="21.209" class="f">after.ini</text><text x="72.144" y="21.209" class="f">b</text></svg><svg x="6240"><use xlink:href="#a"/><use xlink:href="#b" x="73.996" y="19.514"/><use xlink:href="#10"/><use xlink:href="#11" y="2.171"/><use xlink:href="#12" y="4.342"/><use xlink:href="#13" y="6.513"/><use xlink:href="#14" y="8.684"/><use xlink:href="#15" y="10.855"/><use xlink:href="#16" y="13.026"/><use xlink:href="#17" y="15.197"/><use xlink:href="#18" y="17.368"/><text y="21.209" class="f">root@artem:/mnt/c/project-gendiff/__tests__/fixtures#</text><text x="54.108" y="21.209" class="f">gendiff</text><text x="62.124" y="21.209" class="f">after.ini</text><text x="72.144" y="21.209" class="f">be</text></svg><svg x="6360"><use xlink:href="#a"/><use xlink:href="#b" x="74.996" y="19.514"/><use xlink:href="#10"/><use xlink:href="#11" y="2.171"/><use xlink:href="#12" y="4.342"/><use xlink:href="#13" y="6.513"/><use xlink:href="#14" y="8.684"/><use xlink:href="#15" y="10.855"/><use xlink:href="#16" y="13.026"/><use xlink:href="#17" y="15.197"/><use xlink:href="#18" y="17.368"/><text y="21.209" class="f">root@artem:/mnt/c/project-gendiff/__tests__/fixtures#</text><text x="54.108" y="21.209" class="f">gendiff</text><text x="62.124" y="21.209" class="f">after.ini</text><text x="72.144" y="21.209" class="f">bef</text></svg><svg x="6480"><use xlink:href="#a"/><use xlink:href="#b" x="75.996" y="19.514"/><use xlink:href="#10"/><use xlink:href="#11" y="2.171"/><use xlink:href="#12" y="4.342"/><use xlink:href="#13" y="6.513"/><use xlink:href="#14" y="8.684"/><use xlink:href="#15" y="10.855"/><use xlink:href="#16" y="13.026"/><use xlink:href="#17" y="15.197"/><use xlink:href="#18" y="17.368"/><text y="21.209" class="f">root@artem:/mnt/c/project-gendiff/__tests__/fixtures#</text><text x="54.108" y="21.209" class="f">gendiff</text><text x="62.124" y="21.209" class="f">after.ini</text><text x="72.144" y="21.209" class="f">befo</text></svg><svg x="6600"><use xlink:href="#a"/><use xlink:href="#b" x="76.996" y="19.514"/><use xlink:href="#10"/><use xlink:href="#11" y="2.171"/><use xlink:href="#12" y="4.342"/><use xlink:href="#13" y="6.513"/><use xlink:href="#14" y="8.684"/><use xlink:href="#15" y="10.855"/><use xlink:href="#16" y="13.026"/><use xlink:href="#17" y="15.197"/><use xlink:href="#18" y="17.368"/><text y="21.209" class="f">root@artem:/mnt/c/project-gendiff/__tests__/fixtures#</text><text x="54.108" y="21.209" class="f">gendiff</text><text x="62.124" y="21.209" class="f">after.ini</text><text x="72.144" y="21.209" class="f">befor</text></svg><svg x="6720"><use xlink:href="#a"/><use xlink:href="#b" x="77.996" y="19.514"/><use xlink:href="#10"/><use xlink:href="#11" y="2.171"/><use xlink:href="#12" y="4.342"/><use xlink:href="#13" y="6.513"/><use xlink:href="#14" y="8.684"/><use xlink:href="#15" y="10.855"/><use xlink:href="#16" y="13.026"/><use xlink:href="#17" y="15.197"/><use xlink:href="#18" y="17.368"/><text y="21.209" class="f">root@artem:/mnt/c/project-gendiff/__tests__/fixtures#</text><text x="54.108" y="21.209" class="f">gendiff</text><text x="62.124" y="21.209" class="f">after.ini</text><text x="72.144" y="21.209" class="f">before</text></svg><svg x="6840"><use xlink:href="#a"/><use xlink:href="#b" x="78.996" y="19.514"/><use xlink:href="#10"/><use xlink:href="#11" y="2.171"/><use xlink:href="#12" y="4.342"/><use xlink:href="#13" y="6.513"/><use xlink:href="#14" y="8.684"/><use xlink:href="#15" y="10.855"/><use xlink:href="#16" y="13.026"/><use xlink:href="#17" y="15.197"/><use xlink:href="#18" y="17.368"/><text y="21.209" class="f">root@artem:/mnt/c/project-gendiff/__tests__/fixtures#</text><text x="54.108" y="21.209" class="f">gendiff</text><text x="62.124" y="21.209" class="f">after.ini</text><text x="72.144" y="21.209" class="f">before.</text></svg><svg x="6960"><use xlink:href="#a"/><use xlink:href="#b" x="79.996" y="19.514"/><use xlink:href="#10"/><use xlink:href="#11" y="2.171"/><use xlink:href="#12" y="4.342"/><use xlink:href="#13" y="6.513"/><use xlink:href="#14" y="8.684"/><use xlink:href="#15" y="10.855"/><use xlink:href="#16" y="13.026"/><use xlink:href="#17" y="15.197"/><use xlink:href="#18" y="17.368"/><text y="21.209" class="f">root@artem:/mnt/c/project-gendiff/__tests__/fixtures#</text><text x="54.108" y="21.209" class="f">gendiff</text><text x="62.124" y="21.209" class="f">after.ini</text><text x="72.144" y="21.209" class="f">before.i</text></svg><svg x="7080"><use xlink:href="#a"/><use xlink:href="#b" x="80.996" y="19.514"/><use xlink:href="#10"/><use xlink:href="#11" y="2.171"/><use xlink:href="#12" y="4.342"/><use xlink:href="#13" y="6.513"/><use xlink:href="#14" y="8.684"/><use xlink:href="#15" y="10.855"/><use xlink:href="#16" y="13.026"/><use xlink:href="#17" y="15.197"/><use xlink:href="#18" y="17.368"/><text y="21.209" class="f">root@artem:/mnt/c/project-gendiff/__tests__/fixtures#</text><text x="54.108" y="21.209" class="f">gendiff</text><text x="62.124" y="21.209" class="f">after.ini</text><text x="72.144" y="21.209" class="f">before.in</text></svg><svg x="7200"><use xlink:href="#a"/><use xlink:href="#b" x="81.996" y="19.514"/><use xlink:href="#10"/><use xlink:href="#11" y="2.171"/><use xlink:href="#12" y="4.342"/><use xlink:href="#13" y="6.513"/><use xlink:href="#14" y="8.684"/><use xlink:href="#15" y="10.855"/><use xlink:href="#16" y="13.026"/><use xlink:href="#17" y="15.197"/><use xlink:href="#18" y="17.368"/><use xlink:href="#20" y="19.539"/></svg><svg x="7320"><use xlink:href="#a"/><use xlink:href="#b" x="-.004" y="21.685"/><use xlink:href="#10"/><use xlink:href="#11" y="2.171"/><use xlink:href="#12" y="4.342"/><use xlink:href="#13" y="6.513"/><use xlink:href="#14" y="8.684"/><use xlink:href="#15" y="10.855"/><use xlink:href="#16" y="13.026"/><use xlink:href="#17" y="15.197"/><use xlink:href="#18" y="17.368"/><use xlink:href="#20" y="19.539"/></svg><svg x="7440"><use xlink:href="#a"/><use xlink:href="#b" x="-.004" y="39.053"/><use xlink:href="#10"/><use xlink:href="#11" y="2.171"/><use xlink:href="#12" y="4.342"/><use xlink:href="#13" y="6.513"/><use xlink:href="#14" y="8.684"/><use xlink:href="#15" y="10.855"/><use xlink:href="#16" y="13.026"/><use xlink:href="#17" y="15.197"/><use xlink:href="#18" y="17.368"/><use xlink:href="#20" y="19.539"/><use xlink:href="#11" y="21.71"/><use xlink:href="#21" y="23.881"/><use xlink:href="#22" y="26.052"/><use xlink:href="#23" y="28.223"/><use xlink:href="#12" y="30.394"/><use xlink:href="#24" y="32.565"/><use xlink:href="#25" y="34.736"/><use xlink:href="#18" y="36.907"/></svg><svg x="7560"><use xlink:href="#a"/><use xlink:href="#b" x="53.996" y="39.053"/><use xlink:href="#10"/><use xlink:href="#11" y="2.171"/><use xlink:href="#12" y="4.342"/><use xlink:href="#13" y="6.513"/><use xlink:href="#14" y="8.684"/><use xlink:href="#15" y="10.855"/><use xlink:href="#16" y="13.026"/><use xlink:href="#17" y="15.197"/><use xlink:href="#18" y="17.368"/><use xlink:href="#20" y="19.539"/><use xlink:href="#11" y="21.71"/><use xlink:href="#21" y="23.881"/><use xlink:href="#22" y="26.052"/><use xlink:href="#23" y="28.223"/><use xlink:href="#12" y="30.394"/><use xlink:href="#24" y="32.565"/><use xlink:href="#25" y="34.736"/><use xlink:href="#18" y="36.907"/><use xlink:href="#1" y="39.078"/></svg><svg x="7680"><use xlink:href="#a"/><use xlink:href="#b" x="-.004" y="41.224"/><use xlink:href="#10"/><use xlink:href="#11" y="2.171"/><use xlink:href="#12" y="4.342"/><use xlink:href="#13" y="6.513"/><use xlink:href="#14" y="8.684"/><use xlink:href="#15" y="10.855"/><use xlink:href="#16" y="13.026"/><use xlink:href="#17" y="15.197"/><use xlink:href="#18" y="17.368"/><use xlink:href="#20" y="19.539"/><use xlink:href="#11" y="21.71"/><use xlink:href="#21" y="23.881"/><use xlink:href="#22" y="26.052"/><use xlink:href="#23" y="28.223"/><use xlink:href="#12" y="30.394"/><use xlink:href="#24" y="32.565"/><use xlink:href="#25" y="34.736"/><use xlink:href="#18" y="36.907"/><text y="40.748" class="f">root@artem:/mnt/c/project-gendiff/__tests__/fixtures#</text><text x="54.108" y="40.748" class="f">exit</text></svg></svg></g></g></svg></svg>